<svg width="105" height="102" viewBox="0 0 105 102" fill="none" xmlns="http://www.w3.org/2000/svg">
<g filter="url(#filter0_ddd_7_188)">
<path d="M34.125 66.3333C34.9538 66.3333 35.7487 66.7021 36.3347 67.3585C36.9208 68.0148 37.25 68.9051 37.25 69.8333C37.25 70.7616 36.9208 71.6518 36.3347 72.3082C35.7487 72.9646 34.9538 73.3333 34.125 73.3333C33.2962 73.3333 32.5013 72.9646 31.9153 72.3082C31.3292 71.6518 31 70.7616 31 69.8333C31 68.9051 31.3292 68.0148 31.9153 67.3585C32.5013 66.7021 33.2962 66.3333 34.125 66.3333ZM44.5417 59.3333C45.923 59.3333 47.2478 59.9479 48.2245 61.0419C49.2013 62.1358 49.75 63.6196 49.75 65.1667C49.75 66.7138 49.2013 68.1975 48.2245 69.2915C47.2478 70.3854 45.923 71 44.5417 71C43.1603 71 41.8356 70.3854 40.8588 69.2915C39.8821 68.1975 39.3333 66.7138 39.3333 65.1667C39.3333 63.6196 39.8821 62.1358 40.8588 61.0419C41.8356 59.9479 43.1603 59.3333 44.5417 59.3333ZM57.0417 57C54.5625 57 52.3125 55.8333 50.7917 53.85C49.2708 55.8333 47.0208 57 44.5417 57C40.4583 57 37.0625 53.71 36.3542 49.3933C34.7808 48.7119 33.4279 47.5142 32.4725 45.957C31.5172 44.3999 31.0039 42.556 31 40.6667C31 38.1913 31.878 35.8173 33.4408 34.067C35.0036 32.3167 37.1232 31.3333 39.3333 31.3333L40.9375 31.4967C42.4583 29.9567 44.4375 29 46.625 29C49.1042 29 51.3542 30.1667 52.875 32.15C54.3958 30.1667 56.6458 29 59.125 29C63.2083 29 66.6042 32.29 67.3125 36.6067C68.8858 37.2881 70.2388 38.4858 71.1941 40.043C72.1495 41.6001 72.6627 43.444 72.6667 45.3333C72.6667 47.8087 71.7887 50.1827 70.2259 51.933C68.6631 53.6833 66.5435 54.6667 64.3333 54.6667L62.7292 54.5033C61.2083 56.0433 59.2292 57 57.0417 57ZM39.3333 36C38.2283 36 37.1685 36.4917 36.3871 37.3668C35.6057 38.242 35.1667 39.429 35.1667 40.6667C35.1667 41.9043 35.6057 43.0913 36.3871 43.9665C37.1685 44.8417 38.2283 45.3333 39.3333 45.3333C40.0208 45.3333 40.6667 45.1467 41.25 44.82C40.6856 45.6346 40.3779 46.6356 40.375 47.6667C40.375 48.9043 40.814 50.0913 41.5954 50.9665C42.3768 51.8417 43.4366 52.3333 44.5417 52.3333C45.7917 52.3333 46.9167 51.7033 47.6667 50.7233L50.7292 46.8033L53.9167 50.7933C54.7083 51.7267 55.8125 52.3333 57.0417 52.3333C59.125 52.3333 60.8542 50.6067 61.2083 48.3667C61.9167 49.37 63.0625 50 64.3333 50C65.4384 50 66.4982 49.5083 67.2796 48.6332C68.061 47.758 68.5 46.571 68.5 45.3333C68.5 44.0957 68.061 42.9087 67.2796 42.0335C66.4982 41.1583 65.4384 40.6667 64.3333 40.6667C63.6458 40.6667 63 40.8533 62.4167 41.18C62.9811 40.3654 63.2888 39.3644 63.2917 38.3333C63.2917 37.0957 62.8527 35.9087 62.0713 35.0335C61.2899 34.1583 60.2301 33.6667 59.125 33.6667C57.8958 33.6667 56.7917 34.2733 56 35.2067L52.8125 39.1967L49.75 35.2767C49 34.2967 47.875 33.6667 46.625 33.6667C44.5417 33.6667 42.8125 35.3933 42.4583 37.6333C41.75 36.63 40.6042 36 39.3333 36ZM44.5417 62.8333C43.9891 62.8333 43.4592 63.0792 43.0685 63.5167C42.6778 63.9543 42.4583 64.5478 42.4583 65.1667C42.4583 65.7855 42.6778 66.379 43.0685 66.8166C43.4592 67.2542 43.9891 67.5 44.5417 67.5C45.0942 67.5 45.6241 67.2542 46.0148 66.8166C46.4055 66.379 46.625 65.7855 46.625 65.1667C46.625 64.5478 46.4055 63.9543 46.0148 63.5167C45.6241 63.0792 45.0942 62.8333 44.5417 62.8333Z" fill="white"/>
</g>
<defs>
<filter id="filter0_ddd_7_188" x="-1" y="-3" width="105.667" height="108.333" filterUnits="userSpaceOnUse" color-interpolation-filters="sRGB">
<feFlood flood-opacity="0" result="BackgroundImageFix"/>
<feColorMatrix in="SourceAlpha" type="matrix" values="0 0 0 0 0 0 0 0 0 0 0 0 0 0 0 0 0 0 127 0" result="hardAlpha"/>
<feOffset/>
<feGaussianBlur stdDeviation="16"/>
<feComposite in2="hardAlpha" operator="out"/>
<feColorMatrix type="matrix" values="0 0 0 0 0.86 0 0 0 0 0 0 0 0 0 1 0 0 0 1 0"/>
<feBlend mode="normal" in2="BackgroundImageFix" result="effect1_dropShadow_7_188"/>
<feColorMatrix in="SourceAlpha" type="matrix" values="0 0 0 0 0 0 0 0 0 0 0 0 0 0 0 0 0 0 127 0" result="hardAlpha"/>
<feOffset/>
<feGaussianBlur stdDeviation="16"/>
<feComposite in2="hardAlpha" operator="out"/>
<feColorMatrix type="matrix" values="0 0 0 0 0.86 0 0 0 0 0 0 0 0 0 1 0 0 0 1 0"/>
<feBlend mode="normal" in2="effect1_dropShadow_7_188" result="effect2_dropShadow_7_188"/>
<feColorMatrix in="SourceAlpha" type="matrix" values="0 0 0 0 0 0 0 0 0 0 0 0 0 0 0 0 0 0 127 0" result="hardAlpha"/>
<feOffset/>
<feGaussianBlur stdDeviation="16"/>
<feComposite in2="hardAlpha" operator="out"/>
<feColorMatrix type="matrix" values="0 0 0 0 0.160417 0 0 0 0 0 0 0 0 0 0.320833 0 0 0 1 0"/>
<feBlend mode="normal" in2="effect2_dropShadow_7_188" result="effect3_dropShadow_7_188"/>
<feBlend mode="normal" in="SourceGraphic" in2="effect3_dropShadow_7_188" result="shape"/>
</filter>
</defs>
</svg>
