<svg width="105" height="102" viewBox="0 0 105 102" fill="none" xmlns="http://www.w3.org/2000/svg">
<g filter="url(#filter0_ddd_15_53)">
<path d="M52 73C49.2422 73 46.5115 72.431 43.9636 71.3254C41.4158 70.2197 39.1008 68.5992 37.1508 66.5564C33.2125 62.4305 31 56.8348 31 51C31 45.1652 33.2125 39.5695 37.1508 35.4437C41.089 31.3179 46.4305 29 52 29C63.55 29 73 37.8 73 48.8C73 52.3009 71.6725 55.6583 69.3095 58.1338C66.9466 60.6093 63.7417 62 60.4 62H56.62C55.99 62 55.57 62.44 55.57 63.1C55.57 63.32 55.78 63.54 55.78 63.76C56.62 64.86 57.04 66.18 57.04 67.5C57.25 70.58 54.94 73 52 73ZM52 33.4C47.5444 33.4 43.2712 35.2543 40.1206 38.5549C36.97 41.8556 35.2 46.3322 35.2 51C35.2 55.6678 36.97 60.1444 40.1206 63.4451C43.2712 66.7457 47.5444 68.6 52 68.6C52.63 68.6 53.05 68.16 53.05 67.5C53.05 67.06 52.84 66.84 52.84 66.62C52 65.52 51.58 64.42 51.58 63.1C51.58 60.02 53.89 57.6 56.83 57.6H60.4C62.6278 57.6 64.7644 56.6729 66.3397 55.0225C67.915 53.3722 68.8 51.1339 68.8 48.8C68.8 40.22 61.24 33.4 52 33.4ZM40.45 46.6C42.13 46.6 43.6 48.14 43.6 49.9C43.6 51.66 42.13 53.2 40.45 53.2C38.77 53.2 37.3 51.66 37.3 49.9C37.3 48.14 38.77 46.6 40.45 46.6ZM46.75 37.8C48.43 37.8 49.9 39.34 49.9 41.1C49.9 42.86 48.43 44.4 46.75 44.4C45.07 44.4 43.6 42.86 43.6 41.1C43.6 39.34 45.07 37.8 46.75 37.8ZM57.25 37.8C58.93 37.8 60.4 39.34 60.4 41.1C60.4 42.86 58.93 44.4 57.25 44.4C55.57 44.4 54.1 42.86 54.1 41.1C54.1 39.34 55.57 37.8 57.25 37.8ZM63.55 46.6C65.23 46.6 66.7 48.14 66.7 49.9C66.7 51.66 65.23 53.2 63.55 53.2C61.87 53.2 60.4 51.66 60.4 49.9C60.4 48.14 61.87 46.6 63.55 46.6Z" fill="white"/>
</g>
<defs>
<filter id="filter0_ddd_15_53" x="-1" y="-3" width="106" height="108" filterUnits="userSpaceOnUse" color-interpolation-filters="sRGB">
<feFlood flood-opacity="0" result="BackgroundImageFix"/>
<feColorMatrix in="SourceAlpha" type="matrix" values="0 0 0 0 0 0 0 0 0 0 0 0 0 0 0 0 0 0 127 0" result="hardAlpha"/>
<feOffset/>
<feGaussianBlur stdDeviation="16"/>
<feComposite in2="hardAlpha" operator="out"/>
<feColorMatrix type="matrix" values="0 0 0 0 0 0 0 0 0 0.1 0 0 0 0 1 0 0 0 1 0"/>
<feBlend mode="normal" in2="BackgroundImageFix" result="effect1_dropShadow_15_53"/>
<feColorMatrix in="SourceAlpha" type="matrix" values="0 0 0 0 0 0 0 0 0 0 0 0 0 0 0 0 0 0 127 0" result="hardAlpha"/>
<feOffset/>
<feGaussianBlur stdDeviation="16"/>
<feComposite in2="hardAlpha" operator="out"/>
<feColorMatrix type="matrix" values="0 0 0 0 0 0 0 0 0 0.1 0 0 0 0 1 0 0 0 1 0"/>
<feBlend mode="normal" in2="effect1_dropShadow_15_53" result="effect2_dropShadow_15_53"/>
<feColorMatrix in="SourceAlpha" type="matrix" values="0 0 0 0 0 0 0 0 0 0 0 0 0 0 0 0 0 0 127 0" result="hardAlpha"/>
<feOffset/>
<feGaussianBlur stdDeviation="16"/>
<feComposite in2="hardAlpha" operator="out"/>
<feColorMatrix type="matrix" values="0 0 0 0 0 0 0 0 0 0.1 0 0 0 0 1 0 0 0 1 0"/>
<feBlend mode="normal" in2="effect2_dropShadow_15_53" result="effect3_dropShadow_15_53"/>
<feBlend mode="normal" in="SourceGraphic" in2="effect3_dropShadow_15_53" result="shape"/>
</filter>
</defs>
</svg>
