<svg width="105" height="102" viewBox="0 0 105 102" fill="none" xmlns="http://www.w3.org/2000/svg">
<g filter="url(#filter0_ddd_46_56)">
<path fill-rule="evenodd" clip-rule="evenodd" d="M23.9195 48.7356C24.5201 48.0688 25.3609 47.6678 26.2571 47.6209C27.1533 47.5739 28.0314 47.8848 28.6984 48.4851L39.9823 58.6386C40.629 59.2444 41.0122 60.0796 41.0499 60.9648C41.0875 61.8501 40.7765 62.7148 40.1836 63.3732C39.5907 64.0317 38.7633 64.4314 37.8789 64.4865C36.9946 64.5416 36.1239 64.2477 35.4539 63.668L24.1699 53.5145C23.5032 52.9139 23.1022 52.073 23.0552 51.1769C23.0083 50.2807 23.3191 49.4026 23.9195 48.7356Z" fill="white"/>
<path fill-rule="evenodd" clip-rule="evenodd" d="M40.2328 38.5822C40.8331 39.2492 41.144 40.1274 41.097 41.0235C41.0501 41.9197 40.6491 42.7605 39.9823 43.3611L28.6984 53.5147C28.3699 53.8224 27.9834 54.0615 27.5614 54.218C27.1394 54.3745 26.6904 54.4453 26.2408 54.4261C25.7911 54.407 25.3497 54.2984 24.9425 54.1066C24.5353 53.9149 24.1705 53.6438 23.8693 53.3094C23.5682 52.9749 23.3367 52.5837 23.1886 52.1587C23.0404 51.7337 22.9786 51.2834 23.0066 50.8342C23.0345 50.385 23.1519 49.9459 23.3516 49.5425C23.5514 49.1392 23.8296 48.7798 24.1699 48.4853L35.4539 38.3318C36.1209 37.7314 36.999 37.4206 37.8952 37.4675C38.7913 37.5145 39.6322 37.9155 40.2328 38.5822ZM80.8468 48.7357C81.4471 49.4028 81.758 50.2809 81.711 51.177C81.6641 52.0732 81.2631 52.914 80.5963 53.5147L69.3124 63.6682C68.984 63.9759 68.5974 64.215 68.1754 64.3715C67.7534 64.528 67.3044 64.5988 66.8548 64.5796C66.4051 64.5605 65.9637 64.4519 65.5566 64.2602C65.1494 64.0684 64.7845 63.7973 64.4833 63.4629C64.1822 63.1284 63.9508 62.7372 63.8026 62.3122C63.6545 61.8872 63.5926 61.4369 63.6206 60.9877C63.6486 60.5385 63.7659 60.0994 63.9656 59.696C64.1654 59.2927 64.4436 58.9333 64.784 58.6388L76.0679 48.4853C76.7349 47.8849 77.613 47.5741 78.5092 47.621C79.4054 47.668 80.2462 48.069 80.8468 48.7357Z" fill="white"/>
<path fill-rule="evenodd" clip-rule="evenodd" d="M64.5336 38.5823C65.1342 37.9156 65.975 37.5146 66.8712 37.4676C67.7673 37.4207 68.6455 37.7315 69.3125 38.3319L80.5964 48.4854C81.243 49.0912 81.6263 49.9264 81.6639 50.8116C81.7016 51.6969 81.3906 52.5616 80.7977 53.22C80.2048 53.8785 79.3773 54.2782 78.493 54.3333C77.6087 54.3884 76.738 54.0945 76.0679 53.5148L64.784 43.3613C64.1172 42.7607 63.7163 41.9198 63.6693 41.0237C63.6223 40.1275 63.9332 39.2494 64.5336 38.5823ZM58.3501 29.1193C58.779 29.2361 59.1808 29.4363 59.5323 29.7084C59.8839 29.9805 60.1784 30.3192 60.399 30.7052C60.6197 31.0911 60.7621 31.5168 60.8182 31.9578C60.8743 32.3988 60.843 32.8465 60.726 33.2754L50.5725 70.505C50.4556 70.9339 50.2554 71.3355 49.9832 71.6871C49.7111 72.0386 49.3724 72.3331 48.9865 72.5537C48.6005 72.7743 48.1749 72.9168 47.7339 72.9729C47.2929 73.029 46.8452 72.9978 46.4163 72.8809C45.9874 72.764 45.5857 72.5638 45.2342 72.2916C44.8827 72.0195 44.5882 71.6808 44.3676 71.2949C43.922 70.5154 43.8043 69.5909 44.0404 68.7247L54.1939 31.4952C54.3107 31.0662 54.5109 30.6645 54.783 30.3129C55.0551 29.9614 55.3938 29.6669 55.7798 29.4462C56.1657 29.2256 56.5914 29.0832 57.0324 29.0271C57.4734 28.971 57.9212 29.0023 58.3501 29.1193Z" fill="white"/>
</g>
<defs>
<filter id="filter0_ddd_46_56" x="-9" y="-3" width="122.716" height="108" filterUnits="userSpaceOnUse" color-interpolation-filters="sRGB">
<feFlood flood-opacity="0" result="BackgroundImageFix"/>
<feColorMatrix in="SourceAlpha" type="matrix" values="0 0 0 0 0 0 0 0 0 0 0 0 0 0 0 0 0 0 127 0" result="hardAlpha"/>
<feOffset/>
<feGaussianBlur stdDeviation="16"/>
<feComposite in2="hardAlpha" operator="out"/>
<feColorMatrix type="matrix" values="0 0 0 0 1 0 0 0 0 0.72 0 0 0 0 0 0 0 0 1 0"/>
<feBlend mode="normal" in2="BackgroundImageFix" result="effect1_dropShadow_46_56"/>
<feColorMatrix in="SourceAlpha" type="matrix" values="0 0 0 0 0 0 0 0 0 0 0 0 0 0 0 0 0 0 127 0" result="hardAlpha"/>
<feOffset/>
<feGaussianBlur stdDeviation="16"/>
<feComposite in2="hardAlpha" operator="out"/>
<feColorMatrix type="matrix" values="0 0 0 0 1 0 0 0 0 0.72 0 0 0 0 0 0 0 0 1 0"/>
<feBlend mode="normal" in2="effect1_dropShadow_46_56" result="effect2_dropShadow_46_56"/>
<feColorMatrix in="SourceAlpha" type="matrix" values="0 0 0 0 0 0 0 0 0 0 0 0 0 0 0 0 0 0 127 0" result="hardAlpha"/>
<feOffset/>
<feGaussianBlur stdDeviation="16"/>
<feComposite in2="hardAlpha" operator="out"/>
<feColorMatrix type="matrix" values="0 0 0 0 1 0 0 0 0 0.72 0 0 0 0 0 0 0 0 1 0"/>
<feBlend mode="normal" in2="effect2_dropShadow_46_56" result="effect3_dropShadow_46_56"/>
<feBlend mode="normal" in="SourceGraphic" in2="effect3_dropShadow_46_56" result="shape"/>
</filter>
</defs>
</svg>
