<svg width="105" height="102" viewBox="0 0 105 102" fill="none" xmlns="http://www.w3.org/2000/svg">
<g filter="url(#filter0_ddd_49_65)">
<path d="M37.8922 46.5284L42.1671 48.337C42.6786 47.314 43.2084 46.3274 43.7565 45.3775C44.3045 44.4275 44.9074 43.4775 45.5651 42.5275L42.4959 41.9246L37.8922 46.5284ZM45.6747 51.0774L51.9227 57.2705C53.4572 56.6859 55.1014 55.7907 56.8552 54.585C58.6091 53.3792 60.2533 52.0091 61.7878 50.4745C64.3455 47.9168 66.3463 45.0764 67.7903 41.9531C69.2342 38.8299 69.8642 35.9522 69.68 33.32C67.0493 33.1373 64.1628 33.768 61.0206 35.2119C57.8783 36.6559 55.0284 38.656 52.4707 41.2122C50.9361 42.7467 49.566 44.3909 48.3602 46.1448C47.1545 47.8986 46.2593 49.5428 45.6747 51.0774ZM55.4303 47.5149C54.5899 46.6746 54.1697 45.6427 54.1697 44.4194C54.1697 43.1962 54.5899 42.1636 55.4303 41.3218C56.2706 40.4814 57.312 40.0612 58.5543 40.0612C59.7965 40.0612 60.8379 40.4814 61.6782 41.3218C62.5186 42.1621 62.9388 43.1947 62.9388 44.4194C62.9388 45.6442 62.5186 46.676 61.6782 47.5149C60.8379 48.3553 59.7965 48.7755 58.5543 48.7755C57.312 48.7755 56.2706 48.3553 55.4303 47.5149ZM56.4716 65.1078L61.0754 60.5041L60.4725 57.4349C59.5225 58.0926 58.5725 58.686 57.6225 59.215C56.6726 59.7441 55.686 60.2651 54.663 60.7781L56.4716 65.1078ZM73.6261 29.3191C74.3203 33.7402 73.8913 38.0429 72.3392 42.2272C70.7871 46.4115 68.1103 50.4021 64.309 54.1991L65.4051 59.6272C65.5512 60.3579 65.5147 61.0704 65.2955 61.7646C65.0762 62.4589 64.7109 63.0617 64.1993 63.5733L54.9918 72.7808L50.3881 61.9839L41.0161 52.6119L30.2192 48.0082L39.3719 38.8007C39.8835 38.2891 40.4958 37.9238 41.2091 37.7045C41.9223 37.4853 42.6435 37.4488 43.3728 37.5949L48.7987 38.691C52.5986 34.8911 56.5812 32.2056 60.7465 30.6345C64.9118 29.0634 69.205 28.6249 73.6261 29.3191ZM34.1105 59.5724C35.3893 58.2936 36.9517 57.6454 38.7976 57.6278C40.6434 57.6103 42.2051 58.2402 43.4824 59.5176C44.7613 60.7964 45.3919 62.3587 45.3744 64.2046C45.3568 66.0505 44.7079 67.6121 43.4276 68.8895C42.5142 69.8029 40.9891 70.5885 38.8524 71.2462C36.7156 71.9039 33.7649 72.4885 30 73C30.5115 69.2366 31.0961 66.2858 31.7538 64.1476C32.4115 62.0094 33.1971 60.4844 34.1105 59.5724ZM37.2345 62.6415C36.8691 63.0069 36.5037 63.6741 36.1383 64.6431C35.773 65.6121 35.5172 66.5891 35.371 67.5741C36.3576 67.428 37.3353 67.181 38.3043 66.8332C39.2733 66.4853 39.9397 66.1294 40.3036 65.7655C40.7421 65.3271 40.9796 64.7973 41.0161 64.1761C41.0527 63.555 40.8517 63.0252 40.4133 62.5867C39.9748 62.1483 39.445 61.9378 38.8239 61.9554C38.2027 61.9729 37.6729 62.2016 37.2345 62.6415Z" fill="#F8F8F8"/>
</g>
<defs>
<filter id="filter0_ddd_49_65" x="-2" y="-3" width="107.948" height="108" filterUnits="userSpaceOnUse" color-interpolation-filters="sRGB">
<feFlood flood-opacity="0" result="BackgroundImageFix"/>
<feColorMatrix in="SourceAlpha" type="matrix" values="0 0 0 0 0 0 0 0 0 0 0 0 0 0 0 0 0 0 127 0" result="hardAlpha"/>
<feOffset/>
<feGaussianBlur stdDeviation="16"/>
<feComposite in2="hardAlpha" operator="out"/>
<feColorMatrix type="matrix" values="0 0 0 0 1 0 0 0 0 0.472083 0 0 0 0 0.245833 0 0 0 1 0"/>
<feBlend mode="normal" in2="BackgroundImageFix" result="effect1_dropShadow_49_65"/>
<feColorMatrix in="SourceAlpha" type="matrix" values="0 0 0 0 0 0 0 0 0 0 0 0 0 0 0 0 0 0 127 0" result="hardAlpha"/>
<feOffset/>
<feGaussianBlur stdDeviation="16"/>
<feComposite in2="hardAlpha" operator="out"/>
<feColorMatrix type="matrix" values="0 0 0 0 1 0 0 0 0 0.472083 0 0 0 0 0.245833 0 0 0 1 0"/>
<feBlend mode="normal" in2="effect1_dropShadow_49_65" result="effect2_dropShadow_49_65"/>
<feColorMatrix in="SourceAlpha" type="matrix" values="0 0 0 0 0 0 0 0 0 0 0 0 0 0 0 0 0 0 127 0" result="hardAlpha"/>
<feOffset/>
<feGaussianBlur stdDeviation="16"/>
<feComposite in2="hardAlpha" operator="out"/>
<feColorMatrix type="matrix" values="0 0 0 0 1 0 0 0 0 0.472083 0 0 0 0 0.245833 0 0 0 1 0"/>
<feBlend mode="normal" in2="effect2_dropShadow_49_65" result="effect3_dropShadow_49_65"/>
<feBlend mode="normal" in="SourceGraphic" in2="effect3_dropShadow_49_65" result="shape"/>
</filter>
</defs>
</svg>
