<svg width="32" height="32" viewBox="0 0 32 32" fill="none" xmlns="http://www.w3.org/2000/svg">
<path d="M23.9998 29.3333H7.99984C6.58535 29.3333 5.2288 28.7714 4.2286 27.7712C3.22841 26.771 2.6665 25.4144 2.6665 24V7.99996C2.6665 6.58547 3.22841 5.22892 4.2286 4.22872C5.2288 3.22853 6.58535 2.66663 7.99984 2.66663H23.9998C25.4143 2.66663 26.7709 3.22853 27.7711 4.22872C28.7713 5.22892 29.3332 6.58547 29.3332 7.99996V24C29.3332 25.4144 28.7713 26.771 27.7711 27.7712C26.7709 28.7714 25.4143 29.3333 23.9998 29.3333ZM7.99984 5.33329C7.29259 5.33329 6.61432 5.61424 6.11422 6.11434C5.61412 6.61444 5.33317 7.29272 5.33317 7.99996V24C5.33317 24.7072 5.61412 25.3855 6.11422 25.8856C6.61432 26.3857 7.29259 26.6666 7.99984 26.6666H23.9998C24.7071 26.6666 25.3854 26.3857 25.8855 25.8856C26.3855 25.3855 26.6665 24.7072 26.6665 24V7.99996C26.6665 7.29272 26.3855 6.61444 25.8855 6.11434C25.3854 5.61424 24.7071 5.33329 23.9998 5.33329H7.99984ZM21.0158 22.368C20.4392 22.3912 19.864 22.2968 19.325 22.0905C18.7861 21.8842 18.2949 21.5703 17.8812 21.168C17.015 20.1805 16.5708 18.8927 16.6438 17.5813C16.617 16.3067 17.0717 15.0688 17.9172 14.1146C18.3592 13.6473 18.895 13.2788 19.4894 13.0331C20.0839 12.7875 20.7236 12.6703 21.3665 12.6893H21.6772V10.0226C21.6772 9.81463 21.8465 9.64529 22.0545 9.64396H23.8105C23.908 9.64032 24.0032 9.67366 24.0772 9.73729C24.1132 9.77146 24.1416 9.8129 24.1605 9.85887C24.1793 9.90485 24.1882 9.9543 24.1865 10.004V20.2426C24.1798 20.596 24.1985 20.9493 24.2398 21.3V21.3333C24.2419 21.4181 24.2156 21.5011 24.1652 21.5693C24.1216 21.6228 24.0665 21.6657 24.0038 21.6946C23.0785 22.1363 22.0665 22.3668 21.0412 22.3693L21.0158 22.368ZM19.7945 15.5466L19.7878 15.5546C19.3655 16.1104 19.1531 16.7975 19.1878 17.4946C19.1331 18.221 19.3429 18.9428 19.7785 19.5266C20.1345 19.9186 20.6478 20.132 21.1772 20.1053C21.3452 20.1078 21.513 20.0908 21.6772 20.0546V14.9226C21.5527 14.896 21.4258 14.883 21.2985 14.884C21.014 14.8763 20.7314 14.9322 20.4713 15.0475C20.2111 15.1628 19.9799 15.3347 19.7945 15.5506V15.5466ZM16.2998 22.2133H14.3652C14.2657 22.2198 14.1667 22.195 14.0821 22.1424C13.9974 22.0898 13.9314 22.012 13.8932 21.92L13.6132 21.3333L13.6065 21.3186L13.3332 20.7733L13.2478 20.596C12.8225 19.7186 12.3838 18.8146 11.9438 17.884C11.3321 19.2394 10.7022 20.5866 10.0545 21.9253V21.9386L10.0478 21.9506C10.0032 22.0254 9.94095 22.0881 9.8665 22.1333C9.79081 22.1785 9.70398 22.2016 9.61584 22.2H7.78784C7.71139 22.2037 7.63579 22.1824 7.57252 22.1394C7.50924 22.0963 7.46172 22.0338 7.43717 21.9613C7.42111 21.9061 7.41793 21.8479 7.42787 21.7913C7.43781 21.7347 7.46061 21.6811 7.4945 21.6346L10.4665 15.9533L7.59184 10.2013C7.55316 10.1453 7.53114 10.0796 7.52831 10.0116C7.52547 9.94365 7.54195 9.87627 7.57584 9.81729C7.60842 9.76379 7.65425 9.71961 7.70891 9.68901C7.76357 9.65841 7.8252 9.64243 7.88784 9.64263H9.79984C9.89272 9.63766 9.98512 9.65892 10.0665 9.70396C10.1492 9.75445 10.213 9.83085 10.2478 9.92129C10.9625 11.4213 11.5652 12.7213 12.0918 13.8746C12.7465 12.408 13.4425 10.9173 13.9092 9.92929L13.9158 9.91463L13.9238 9.90129V9.88663C13.9573 9.82959 13.9991 9.77791 14.0478 9.73329C14.1303 9.66444 14.2351 9.62795 14.3425 9.63063H16.1332C16.2016 9.6288 16.2692 9.64684 16.3276 9.68257C16.3861 9.71829 16.4329 9.77018 16.4625 9.83196C16.4861 9.88855 16.4956 9.95 16.4902 10.0111C16.4849 10.0721 16.4649 10.131 16.4318 10.1826L13.5558 15.7653L16.5985 21.632C16.6305 21.6829 16.6506 21.7404 16.6573 21.8002C16.664 21.86 16.6571 21.9205 16.6372 21.9773C16.612 22.0463 16.5661 22.1059 16.5057 22.1477C16.4452 22.1895 16.3733 22.2115 16.2998 22.2106V22.2133Z" fill="white"/>
</svg>
