<svg width="32" height="32" viewBox="0 0 32 32" fill="none" xmlns="http://www.w3.org/2000/svg">
<g clip-path="url(#clip0_244_163)">
<path d="M26.667 0H5.33398C3.92096 0.00448288 2.56709 0.56779 1.56793 1.56695C0.568767 2.56611 0.00545945 3.91998 0.000976562 5.333V26.666C0.000976562 29.598 2.40198 31.999 5.33398 31.999H26.667C29.599 31.999 32 29.598 32 26.666V5.333C32 2.401 29.599 0 26.667 0ZM23.75 22.474C23.4836 23.1164 23.0612 23.6821 22.521 24.12C21.958 24.573 21.25 24.948 20.375 25.214C19.505 25.485 18.469 25.62 17.266 25.62H8.69298V6.953H17.761C19.438 6.953 20.782 7.328 21.787 8.099C22.803 8.87 23.303 10.026 23.303 11.578C23.303 12.521 23.074 13.323 22.615 13.989C22.156 14.655 21.495 15.171 20.641 15.531V15.594C21.782 15.834 22.662 16.375 23.24 17.214C23.818 18.053 24.12 19.115 24.12 20.396C24.1207 21.0944 23.9845 21.7861 23.719 22.432L23.75 22.468V22.474ZM20.047 17.875C19.505 17.375 18.734 17.13 17.745 17.13H11.979V22.953H17.76C18.744 22.953 19.52 22.698 20.067 22.182C20.614 21.666 20.89 20.932 20.89 19.994C20.88 19.072 20.614 18.359 20.067 17.874H20.041L20.047 17.875ZM19.25 14.109C19.776 13.661 20.036 13.02 20.036 12.182C20.036 11.244 19.802 10.578 19.328 10.198C18.859 9.818 18.182 9.62 17.292 9.62H11.959V14.771H17.292C18.068 14.771 18.735 14.542 19.245 14.11L19.25 14.109Z" fill="white"/>
</g>
<defs>
<clipPath id="clip0_244_163">
<rect width="32" height="32" fill="white"/>
</clipPath>
</defs>
</svg>
