<svg width="148" height="50" viewBox="0 0 148 50" fill="none" xmlns="http://www.w3.org/2000/svg">
<path fill-rule="evenodd" clip-rule="evenodd" d="M46.1197 12.6834C44.1494 9.16123 41.3599 6.17188 38.0135 3.98159C35.1874 2.13157 31.964 0.851594 28.502 0.302045C28.1586 0.247511 27.8122 0.200169 27.4641 0.160177L27.4014 0.15304C27.0823 0.117228 26.7615 0.0875876 26.4389 0.0642388L40.221 23.9544L46.556 13.4981C46.4156 13.2235 46.27 12.9519 46.1197 12.6834ZM44.6362 13.4473C42.8005 10.1918 40.2123 7.42688 37.1124 5.39751C34.8532 3.9188 32.3225 2.83092 29.6125 2.22771L36.4505 14.0806L42.9084 16.2986L44.6362 13.4473ZM42.0161 17.7715L37.7309 16.2998L40.2559 20.6768L42.0161 17.7715Z" fill="#858585"/>
<path fill-rule="evenodd" clip-rule="evenodd" d="M33.2833 37.8327H45.8232C45.9294 37.6525 46.0338 37.4709 46.136 37.288C46.1795 37.2101 46.2224 37.1316 46.2653 37.0531C48.0111 33.843 49.0809 30.2025 49.2805 26.3282C49.3037 25.8884 49.3153 25.4456 49.3153 25C49.3153 24.6815 49.3089 24.3643 49.2979 24.0486C49.1987 21.3655 48.6824 18.7906 47.8132 16.3885C47.6833 16.0299 47.5458 15.6752 47.4007 15.3245C47.2783 15.0296 47.1507 14.7376 47.0178 14.4486L33.2833 37.8327ZM41.6761 26.8372L41.4545 31.1684L40.1033 29.5151L41.6761 26.8372ZM39.2005 31.0519L36.2074 36.1472H43.3662L39.2005 31.0519ZM45.1189 35.6508L43.2635 33.381L47.3885 28.5461C47.0091 31.0709 46.2299 33.4617 45.1189 35.6508ZM47.6438 25.6712L43.1301 30.9617L43.4991 23.7333L43.8361 23.1602L47.6525 25.0983C47.652 25.2898 47.6485 25.4808 47.6438 25.6712ZM47.5835 23.1784C47.4553 21.4955 47.1513 19.8635 46.69 18.301L44.689 21.7082L47.5835 23.1784Z" fill="#858585"/>
<path fill-rule="evenodd" clip-rule="evenodd" d="M45.1067 38.9735H17.9071L24.2589 49.9969C24.3916 49.9989 24.5243 50 24.6578 50C24.8707 50 25.0836 49.9972 25.2948 49.9919C28.8467 49.9003 32.2117 49.0475 35.2367 47.5885C35.3035 47.5564 35.3696 47.524 35.4357 47.4914C35.7717 47.3257 36.103 47.1528 36.4296 46.9723C36.465 46.9528 36.5004 46.9332 36.5352 46.9134C39.3705 45.3305 41.8647 43.1986 43.8802 40.6586C44.175 40.2872 44.4598 39.9067 44.7337 39.5182C44.8601 39.3383 44.9849 39.1567 45.1067 38.9735ZM35.6719 40.6586L35.0227 45.6534L23.7745 40.6586H35.6719ZM21.2068 41.3583L25.2113 48.3081C28.0147 48.2408 30.6945 47.6651 33.1638 46.6679L21.2068 41.3583ZM36.8108 44.7966L37.3486 40.6586H41.6947C40.2663 42.2556 38.6227 43.6505 36.8108 44.7966Z" fill="#858585"/>
<path fill-rule="evenodd" clip-rule="evenodd" d="M23.3451 49.9651L9.18787 25.8555L2.85726 36.6919C2.95235 36.8738 3.04935 37.0542 3.1488 37.2335C4.68685 40.0073 6.73163 42.4534 9.15596 44.443C9.43798 44.6743 9.72517 44.8994 10.0172 45.1182C13.2598 47.5481 17.1107 49.1911 21.2954 49.7695C21.618 49.8142 21.9425 49.8525 22.2689 49.8841C22.6255 49.919 22.9841 49.9461 23.3451 49.9651ZM20.1821 47.8738C16.7974 47.1969 13.6802 45.7673 11.0052 43.7628C10.9308 43.7072 10.8569 43.6511 10.7834 43.5947L10.2387 30.9396L20.1821 47.8738ZM4.77347 36.7187L8.54566 30.262L9.05651 42.1282C7.37788 40.5556 5.93086 38.7329 4.77347 36.7187Z" fill="#858585"/>
<path fill-rule="evenodd" clip-rule="evenodd" d="M2.25376 35.4561L15.9383 11.9772H3.60545C3.49673 12.1572 3.3905 12.3389 3.28612 12.5219C3.22265 12.6336 3.16 12.7459 3.09786 12.8588C1.12444 16.4538 0 20.5938 0 25C0 27.9849 0.516006 30.8475 1.46228 33.5014C1.62658 33.9617 1.80365 34.4162 1.99331 34.8634C2.07779 35.0626 2.16441 35.2601 2.25376 35.4561ZM2.58753 31.5706L7.72611 22.7544L3.98988 14.7659C2.49923 17.8542 1.66227 21.3262 1.66227 25C1.66227 27.2832 1.98543 29.4877 2.58753 31.5706ZM5.3135 13.6626L8.74676 21.0032L13.0252 13.6626H5.3135Z" fill="#858585"/>
<path fill-rule="evenodd" clip-rule="evenodd" d="M24.4764 0.000660259C22.5313 0.0148461 20.6399 0.257361 18.8267 0.703082C18.3861 0.811412 17.9501 0.931741 17.5191 1.06371C17.4892 1.07282 17.4595 1.08198 17.4298 1.0912C12.7312 2.54955 8.62933 5.39262 5.58728 9.15112C5.28652 9.52253 4.99632 9.90294 4.71679 10.2918C4.58764 10.4716 4.46069 10.6532 4.33618 10.8365H31.5016L25.4074 0.0113452C25.1585 0.00379961 24.9084 0 24.6578 0C24.5969 0 24.5371 0.000220335 24.4764 0.000660259ZM24.4366 1.68645C22.9203 1.70091 21.439 1.86414 20.0061 2.16246L25.6539 9.15112H28.639L24.4366 1.68645ZM23.505 9.15112L18.5539 3.02484L16.5737 9.15112H23.505ZM14.8242 9.15112L16.7845 3.08743C13.3233 4.36604 10.2499 6.46394 7.79231 9.15112H14.8242Z" fill="#858585"/>
<path d="M74.7272 25.8808L75.5733 26.7616C73.8811 27.8272 72.0578 28.3603 70.1037 28.3603C67.122 28.3603 64.5736 27.2292 62.4582 24.967C60.363 22.6831 59.3154 19.9315 59.3154 16.7124C59.3154 13.4719 60.363 10.7097 62.4582 8.42573C64.5736 6.14176 67.122 5 70.1037 5C72.078 5 73.8911 5.5219 75.5431 6.56569L74.7574 7.51196C73.2666 6.64228 71.7153 6.20677 70.1037 6.20677C67.4444 6.20677 65.1679 7.23988 63.2741 9.30655C61.3804 11.3728 60.4335 13.8415 60.4335 16.7124C60.4335 19.5837 61.3804 22.0414 63.2741 24.0862C65.1679 26.1306 67.4444 27.153 70.1037 27.153C71.7355 27.153 73.2767 26.7287 74.7272 25.8808Z" fill="#858585"/>
<path d="M79.6113 28.0993H80.7294V15.8646H79.6113V28.0993Z" fill="#858585"/>
<path d="M80.941 11.8515C81.1425 11.6555 81.2431 11.4164 81.2431 11.1337C81.2431 10.8291 81.1425 10.5788 80.941 10.3833C80.7596 10.1656 80.5482 10.0569 80.3064 10.0569C80.0647 10.0569 79.843 10.1656 79.6415 10.3833C79.4401 10.5788 79.3394 10.8291 79.3394 11.1337C79.3394 11.4164 79.43 11.6555 79.6113 11.8515C79.8128 12.0474 80.0344 12.1449 80.2762 12.1449C80.5381 12.1449 80.7596 12.0474 80.941 11.8515Z" fill="#858585"/>
<path d="M95.2521 28.0992H94.1339V19.2897C94.0937 18.5723 93.8419 17.9738 93.3786 17.4956C92.9153 17.0169 92.2404 16.7559 91.3539 16.7123C90.0241 16.7123 88.8758 17.1473 87.909 18.0175C86.9419 18.8876 86.4583 19.975 86.4583 21.2802V28.0992H85.3403V15.8969H86.3375L86.4583 19.1592C86.8814 18.0936 87.5159 17.2453 88.3622 16.6147C89.2284 15.9837 90.2256 15.6685 91.3539 15.6685C92.5023 15.6467 93.4289 15.9731 94.1339 16.6473C94.8391 17.3214 95.2119 18.2023 95.2521 19.2897V28.0992Z" fill="#858585"/>
<path fill-rule="evenodd" clip-rule="evenodd" d="M99.4514 24.1186L109.121 20.073C108.719 18.7459 108.064 17.6803 107.157 16.8757C106.271 16.071 105.183 15.6684 103.893 15.6684C102.262 15.6684 100.872 16.299 99.7234 17.5605C98.5751 18.8003 98.0008 20.3014 98.0008 22.063C98.0008 23.8033 98.5751 25.304 99.7234 26.5655C100.872 27.8052 102.242 28.4251 103.833 28.4251C105.425 28.4251 106.784 27.8382 107.913 26.6635L107.157 26.0107C106.271 26.9026 105.243 27.3484 104.075 27.3484C102.907 27.3484 101.929 27.0549 101.144 26.4675C100.378 25.8806 99.8142 25.0973 99.4514 24.1186ZM99.1795 23.0418C99.1392 22.6067 99.119 22.2697 99.119 22.0305C99.119 20.508 99.5621 19.2465 100.449 18.2459C101.355 17.2453 102.504 16.7452 103.893 16.7452C105.687 16.7452 106.996 17.6367 107.822 19.4201L99.1795 23.0418Z" fill="#858585"/>
<path d="M131.873 28.0992H130.755V19.2897C130.715 18.5723 130.463 17.9738 130 17.4956C129.536 17.0169 128.861 16.7559 127.975 16.7123C126.665 16.7123 125.517 17.1366 124.53 17.9849C123.563 18.8114 123.08 19.8446 123.08 21.0843V28.0992H121.962V19.2897C121.921 18.5723 121.669 17.9738 121.206 17.4956C120.743 17.0169 120.068 16.7559 119.181 16.7123C117.852 16.7123 116.703 17.1473 115.736 18.0175C114.77 18.8876 114.286 19.975 114.286 21.2802V28.0992H113.168V15.8969H114.165L114.286 19.1592C114.709 18.0936 115.344 17.2453 116.189 16.6147C117.056 15.9837 118.053 15.6685 119.181 15.6685C120.33 15.6467 121.256 15.9731 121.962 16.6473C122.666 17.3214 123.039 18.2023 123.08 19.2897C123.503 18.1804 124.137 17.2996 124.983 16.6473C125.83 15.9944 126.827 15.6685 127.975 15.6685C129.124 15.6467 130.05 15.9731 130.755 16.6473C131.46 17.3214 131.833 18.2023 131.873 19.2897V28.0992Z" fill="#858585"/>
<path fill-rule="evenodd" clip-rule="evenodd" d="M146.038 28.0993H147.157V15.8646H146.189L146.038 19.2248C145.615 18.1374 144.981 17.2673 144.135 16.6149C143.288 15.9621 142.281 15.6361 141.113 15.6361C139.481 15.6361 138.091 16.2667 136.942 17.5282C135.794 18.768 135.22 20.2691 135.22 22.0307C135.22 23.771 135.794 25.2717 136.942 26.5332C138.091 27.7729 139.481 28.3928 141.113 28.3928C142.261 28.3928 143.278 28.0557 144.165 27.3815C145.051 26.6851 145.706 25.7829 146.129 24.6732L146.038 26.1418V28.0993ZM137.667 25.7829C136.781 24.7604 136.338 23.4989 136.338 21.9978C136.338 20.4757 136.781 19.2137 137.667 18.2136C138.574 17.213 139.723 16.7124 141.113 16.7124C142.523 16.7124 143.671 17.213 144.557 18.2136C145.464 19.2137 145.918 20.4757 145.918 21.9978C145.918 23.4989 145.464 24.7604 144.557 25.7829C143.671 26.8048 142.523 27.316 141.113 27.316C139.723 27.316 138.574 26.8048 137.667 25.7829Z" fill="#858585"/>
<path d="M63.7686 44.9292C62.9251 44.9292 62.1637 44.7346 61.4845 44.345C60.8163 43.9563 60.2849 43.384 59.8906 42.6288C59.5071 41.862 59.3154 40.9126 59.3154 39.7802C59.3264 38.6357 59.5181 37.6801 59.8906 36.9138C60.274 36.1469 60.8053 35.5747 61.4845 35.1971C62.1637 34.8079 62.947 34.6133 63.8344 34.6133C64.908 34.6133 65.8063 34.9259 66.5293 35.5511C67.2633 36.1763 67.7289 37.0727 67.9261 38.2408H67.1538C66.9894 37.2972 66.606 36.5833 66.0035 36.0997C65.4009 35.6041 64.6779 35.3565 63.8344 35.3565C62.6731 35.3565 61.7529 35.7341 61.0737 36.4889C60.4055 37.2437 60.0713 38.3289 60.0713 39.7446C60.0713 41.2074 60.4 42.3162 61.0573 43.0714C61.7255 43.8142 62.6293 44.186 63.7686 44.186C64.6998 44.186 65.4667 43.9384 66.0692 43.4428C66.6717 42.9476 67.0497 42.2396 67.203 41.3196H68.0082C67.8001 42.464 67.3345 43.3547 66.6115 43.9914C65.8884 44.6166 64.9408 44.9292 63.7686 44.9292Z" fill="#858585"/>
<path fill-rule="evenodd" clip-rule="evenodd" d="M75.3827 34.7905L71.9812 44.7524H72.7371L73.8545 41.4785H78.1598L79.2608 44.7524H80.0497L76.6152 34.7905H75.3827ZM74.101 40.7709L76.0072 35.1441L77.9133 40.7709H74.101Z" fill="#858585"/>
<path fill-rule="evenodd" clip-rule="evenodd" d="M85.2306 44.7524H84.4912V34.7905H87.9091C89.9468 34.7905 90.9657 35.8223 90.9657 37.8867C90.9657 38.8543 90.6972 39.6029 90.1604 40.1341C89.6237 40.6529 88.8731 40.9125 87.9091 40.9125H85.2306V44.7524ZM87.8433 35.4981H85.2306V40.2228H87.8433C88.6323 40.2228 89.2348 40.0277 89.6511 39.6385C90.0672 39.2493 90.2755 38.6593 90.2755 37.8693C90.2755 37.0549 90.0728 36.4595 89.6674 36.0819C89.262 35.6927 88.6542 35.4981 87.8433 35.4981Z" fill="#858585"/>
<path d="M94.5541 34.7905V35.5154H97.6434V44.7524H98.3828V35.5154H101.456V34.7905H94.5541Z" fill="#858585"/>
<path d="M109.301 45C108.095 45 107.164 44.6108 106.507 43.8324C105.861 43.042 105.537 41.9332 105.537 40.5055V34.7905H106.293V40.5055C106.293 41.7559 106.562 42.6938 107.098 43.319C107.646 43.9326 108.38 44.239 109.301 44.239C110.276 44.239 111.02 43.9326 111.535 43.319C112.061 42.7058 112.324 41.768 112.324 40.5055V34.7905H113.064V40.5055C113.064 41.9563 112.74 43.0714 112.094 43.8498C111.458 44.6166 110.527 45 109.301 45Z" fill="#858585"/>
<path fill-rule="evenodd" clip-rule="evenodd" d="M118.131 34.7905V44.7524H118.887V40.3639C119.752 40.3523 120.47 40.3461 121.04 40.3461C121.609 40.3461 122.058 40.3875 122.387 40.4704C122.727 40.5412 122.973 40.6885 123.126 40.9125C123.291 41.1249 123.395 41.4376 123.439 41.8504C123.493 42.2632 123.521 42.8118 123.521 43.4958C123.521 43.9326 123.587 44.2568 123.718 44.4692C123.849 44.6816 124.008 44.8174 124.194 44.8762C124.381 44.935 124.551 44.947 124.704 44.9118C124.868 44.8762 124.978 44.8348 125.032 44.7876V44.2038C124.726 44.3218 124.512 44.3098 124.392 44.1686C124.282 44.015 124.216 43.7852 124.194 43.4784C124.183 43.16 124.173 42.8118 124.161 42.4342C124.161 42.057 124.118 41.6972 124.03 41.3547C123.953 41.0012 123.789 40.7121 123.537 40.4882C123.296 40.2521 122.924 40.1341 122.42 40.1341C122.935 40.1341 123.351 40.0161 123.669 39.7801C123.997 39.5441 124.238 39.2315 124.392 38.8423C124.545 38.4531 124.622 38.0341 124.622 37.5857C124.622 36.8665 124.479 36.3059 124.194 35.9051C123.921 35.4923 123.515 35.2033 122.979 35.0381C122.442 34.8729 121.784 34.7905 121.007 34.7905H118.131ZM121.302 39.7093H118.887V35.4981H120.908C121.554 35.4981 122.102 35.5453 122.551 35.6397C123.011 35.7341 123.356 35.9345 123.587 36.2413C123.828 36.5361 123.948 36.9961 123.948 37.6213C123.948 38.4353 123.729 38.9897 123.291 39.2845C122.853 39.5677 122.19 39.7093 121.302 39.7093Z" fill="#858585"/>
<path d="M130.349 44.0622H135.755V44.7524H129.593V34.7905H135.608V35.5154H130.349V39.3553H134.556V40.0634H130.349V44.0622Z" fill="#858585"/>
<path d="M141.898 44.646C142.489 44.8705 143.102 44.9822 143.738 44.9822C144.362 44.9822 144.927 44.882 145.431 44.6817C145.945 44.4808 146.356 44.1923 146.663 43.8142C146.969 43.437 147.134 42.977 147.156 42.4342C147.167 41.8682 147.063 41.4078 146.843 41.0542C146.636 40.6886 146.345 40.3992 145.972 40.1872C145.611 39.9748 145.211 39.8038 144.773 39.6737C144.335 39.5442 143.891 39.4204 143.442 39.3024C143.004 39.1844 142.599 39.0485 142.226 38.8954C141.865 38.7301 141.569 38.512 141.339 38.2408C141.12 37.9691 141.016 37.6093 141.027 37.1613C141.038 36.6421 141.289 36.2177 141.782 35.8873C142.275 35.5453 142.9 35.3743 143.656 35.3743C143.897 35.3743 144.17 35.4095 144.477 35.4803C144.784 35.5391 145.08 35.6571 145.365 35.8343C145.65 36.0111 145.879 36.2587 146.055 36.5775C146.241 36.8959 146.329 37.303 146.318 37.7981H147.057C147.079 37.0905 146.937 36.5009 146.63 36.0289C146.334 35.5569 145.929 35.2033 145.414 34.9669C144.899 34.7313 144.335 34.6133 143.722 34.6133C143.086 34.6133 142.511 34.7135 141.996 34.9139C141.481 35.1147 141.065 35.4037 140.747 35.7809C140.44 36.1469 140.276 36.5891 140.254 37.1083C140.232 37.6628 140.331 38.1112 140.55 38.4532C140.769 38.7952 141.059 39.0721 141.421 39.2846C141.793 39.497 142.199 39.6737 142.637 39.8154C143.086 39.9454 143.53 40.0692 143.968 40.1872C144.417 40.3052 144.822 40.4526 145.184 40.6294C145.556 40.7946 145.852 41.019 146.071 41.3018C146.301 41.573 146.411 41.9332 146.4 42.3812C146.389 42.4872 146.351 42.6466 146.285 42.859C146.23 43.0594 146.115 43.266 145.94 43.4784C145.765 43.6909 145.502 43.8734 145.151 44.0266C144.812 44.1687 144.357 44.239 143.787 44.239C143.152 44.239 142.637 44.1624 142.242 44.0093C141.848 43.844 141.536 43.6432 141.306 43.4076C141.087 43.1716 140.928 42.9356 140.829 42.6996C140.742 42.452 140.687 42.2396 140.665 42.0628C140.643 41.874 140.632 41.7622 140.632 41.7266H139.876C139.898 42.4934 140.095 43.1186 140.467 43.6022C140.84 44.0743 141.317 44.4221 141.898 44.646Z" fill="#858585"/>
</svg>
