<svg width="32" height="32" viewBox="0 0 32 32" fill="none" xmlns="http://www.w3.org/2000/svg">
<path d="M27.912 7.28895L17.588 1.32795C17.133 1.05995 16.586 0.902954 16 0.902954C15.414 0.902954 14.867 1.06095 14.396 1.33595L14.411 1.32795L4.08702 7.28895C3.60523 7.56874 3.20512 7.96984 2.92652 8.45231C2.64791 8.93479 2.50052 9.48182 2.49902 10.039V21.961C2.50019 22.5154 2.64599 23.06 2.92203 23.5409C3.19808 24.0218 3.5948 24.4223 4.07302 24.703L4.08902 24.711L14.411 30.672C14.8939 30.9522 15.4427 31.0988 16.001 31.097C16.585 31.097 17.132 30.939 17.603 30.664L17.589 30.672L27.911 24.711C28.3928 24.4312 28.7929 24.0301 29.0715 23.5476C29.3501 23.0651 29.4975 22.5181 29.499 21.961V10.039C29.4983 9.48451 29.3527 8.93988 29.0768 8.45895C28.801 7.97803 28.4043 7.57748 27.926 7.29695L27.912 7.28895ZM27.383 21.961C27.383 22.35 27.172 22.691 26.857 22.875L26.853 22.877L16.529 28.838C16.3671 28.9317 16.1832 28.9808 15.9961 28.9802C15.809 28.9797 15.6254 28.9296 15.464 28.835L15.469 28.837L5.14502 22.876C4.98422 22.7831 4.85069 22.6496 4.75783 22.4888C4.66498 22.328 4.61607 22.1456 4.61602 21.96V10.038C4.61602 9.64895 4.82702 9.30795 5.14202 9.12395L5.14602 9.12195L15.47 3.16095C15.632 3.06763 15.8157 3.0186 16.0027 3.01877C16.1896 3.01895 16.3732 3.06833 16.535 3.16195L16.529 3.15995L26.853 9.12095C27.172 9.30595 27.382 9.64795 27.382 10.037L27.383 21.961Z" fill="black"/>
<path d="M22.094 19.451H21.336C21.1555 19.4505 20.978 19.4971 20.821 19.586L20.827 19.582L16.253 22.094L10.971 19.045V12.963L16.253 9.91199L20.829 12.416C20.975 12.498 21.152 12.547 21.337 12.547H22.095C22.1646 12.5469 22.2335 12.533 22.2977 12.5063C22.362 12.4795 22.4203 12.4404 22.4694 12.391C22.5186 12.3417 22.5575 12.2832 22.584 12.2189C22.6105 12.1545 22.6241 12.0856 22.624 12.016V11.3C22.6241 11.2057 22.599 11.1131 22.5514 11.0317C22.5037 10.9503 22.4352 10.8831 22.353 10.837L22.349 10.835L17.271 8.05799C16.9504 7.88275 16.59 7.79334 16.2246 7.79842C15.8593 7.8035 15.5015 7.90291 15.186 8.08699L15.196 8.08099L9.91496 11.13C9.59403 11.317 9.32751 11.5846 9.14177 11.9063C8.95603 12.2279 8.85751 12.5925 8.85596 12.964V19.046C8.85596 19.825 9.27796 20.507 9.90496 20.874L9.91396 20.88L15.195 23.929C15.512 24.1113 15.8707 24.2089 16.2365 24.2122C16.6022 24.2155 16.9626 24.1245 17.283 23.948L17.271 23.954L22.351 21.167C22.4346 21.1216 22.5044 21.0544 22.553 20.9725C22.6016 20.8906 22.6271 20.7972 22.627 20.702V19.986C22.6267 19.8458 22.5709 19.7114 22.4717 19.6122C22.3726 19.5131 22.2382 19.4573 22.098 19.457L22.094 19.451Z" fill="black"/>
</svg>
