<svg width="32" height="32" viewBox="0 0 32 32" fill="none" xmlns="http://www.w3.org/2000/svg">
<path fill-rule="evenodd" clip-rule="evenodd" d="M11.2198 0C7.95709 0 5.33309 2.73733 5.33309 6.09067C5.33309 8.12933 6.30376 9.94 7.79576 11.0453C7.0268 11.6214 6.40351 12.3697 5.97584 13.2301C5.54818 14.0905 5.32805 15.0392 5.33309 16C5.33309 18.04 6.30376 19.8493 7.79576 20.9547C7.0268 21.5308 6.40351 22.279 5.97584 23.1395C5.54818 23.9999 5.32805 24.9485 5.33309 25.9093C5.33309 29.2627 7.95709 32 11.2198 32C14.4811 32 17.1064 29.2627 17.1064 25.9093V20.76C18.1375 21.6197 19.4373 22.091 20.7798 22.092C24.0424 22.0907 26.6664 19.3533 26.6664 16C26.6718 15.0391 26.4518 14.0904 26.0241 13.2299C25.5964 12.3694 24.973 11.6212 24.2038 11.0453C24.9727 10.4692 25.596 9.72096 26.0237 8.86055C26.4513 8.00013 26.6715 7.05149 26.6664 6.09067C26.6664 2.73733 24.0424 0 20.7798 0H11.2198ZM7.54509 6.09067C7.54509 3.96933 9.20109 2.27067 11.2198 2.27067H14.8931V9.91067H11.2198C9.20109 9.91067 7.54509 8.21067 7.54509 6.09067ZM20.7798 9.90933H17.1064V2.26933H20.7798C22.7998 2.26933 24.4544 3.96933 24.4544 6.09067C24.4544 8.21067 22.7998 9.90933 20.7798 9.90933ZM7.54643 16C7.54643 13.88 9.20243 12.18 11.2211 12.18H14.8944V19.82H11.2198C9.19976 19.82 7.54509 18.12 7.54509 16H7.54643ZM17.1064 16C17.1064 13.88 18.7624 12.18 20.7811 12.18C22.8011 12.18 24.4558 13.8787 24.4558 16C24.4558 18.12 22.8011 19.82 20.7811 19.82C18.7624 19.82 17.1078 18.1213 17.1078 16H17.1064ZM7.54643 25.9093C7.54643 23.7893 9.20243 22.0907 11.2211 22.0907H14.8944V25.9093C14.8944 28.0307 13.2411 29.7293 11.2211 29.7293C9.20243 29.7293 7.54643 28.0307 7.54643 25.9093Z" fill="white"/>
</svg>
