<svg width="32" height="32" viewBox="0 0 32 32" fill="none" xmlns="http://www.w3.org/2000/svg">
<g clip-path="url(#clip0_244_175)">
<path d="M31.3962 14.574L17.4242 0.603964C17.2329 0.412568 17.0057 0.260738 16.7557 0.15715C16.5057 0.0535614 16.2378 0.000244141 15.9672 0.000244141C15.6966 0.000244141 15.4286 0.0535614 15.1786 0.15715C14.9286 0.260738 14.7015 0.412568 14.5102 0.603964L11.6102 3.50396L15.2902 7.18396C15.7242 7.03578 16.1911 7.0126 16.6376 7.11706C17.0842 7.22153 17.4924 7.44942 17.8156 7.77475C18.1389 8.10008 18.3641 8.50972 18.4657 8.95694C18.5673 9.40415 18.5411 9.87092 18.3902 10.304L21.9362 13.852C22.4608 13.6672 23.0327 13.6667 23.5577 13.8504C24.0826 14.0341 24.5294 14.3911 24.8244 14.8626C25.1195 15.3341 25.2451 15.892 25.1807 16.4444C25.1163 16.9969 24.8657 17.511 24.4702 17.902C24.0697 18.3049 23.5418 18.5562 22.9767 18.6131C22.4115 18.67 21.8441 18.5289 21.3714 18.214C20.8987 17.899 20.55 17.4296 20.3849 16.8861C20.2198 16.3426 20.2485 15.7586 20.4662 15.234L17.1602 11.926V20.632C17.6627 20.8807 18.0648 21.2942 18.2994 21.8034C18.534 22.3127 18.587 22.887 18.4496 23.4306C18.3121 23.9742 17.9925 24.4542 17.544 24.7908C17.0955 25.1273 16.5452 25.2999 15.9849 25.2799C15.4245 25.2599 14.888 25.0484 14.4646 24.6808C14.0413 24.3131 13.7567 23.8115 13.6584 23.2595C13.5601 22.7074 13.6539 22.1384 13.9243 21.6472C14.1946 21.1559 14.6252 20.7722 15.1442 20.56V11.774C14.8447 11.6513 14.5726 11.4705 14.3433 11.2422C14.1141 11.0138 13.9323 10.7423 13.8085 10.4433C13.6847 10.1444 13.6212 9.82386 13.6219 9.50028C13.6225 9.1767 13.6872 8.85644 13.8122 8.55796L10.1862 4.92996L0.606162 14.51C0.414765 14.7013 0.262935 14.9284 0.159347 15.1784C0.0557586 15.4284 0.00244141 15.6964 0.00244141 15.967C0.00244141 16.2376 0.0557586 16.5055 0.159347 16.7555C0.262935 17.0055 0.414765 17.2327 0.606162 17.424L14.5782 31.396C14.7695 31.5874 14.9966 31.7392 15.2466 31.8428C15.4966 31.9464 15.7646 31.9997 16.0352 31.9997C16.3058 31.9997 16.5737 31.9464 16.8237 31.8428C17.0737 31.7392 17.3009 31.5874 17.4922 31.396L31.3982 17.49C31.7842 17.1033 32.0011 16.5793 32.0011 16.033C32.0011 15.4866 31.7842 14.9626 31.3982 14.576" fill="white"/>
</g>
<defs>
<clipPath id="clip0_244_175">
<rect width="32" height="32" fill="white"/>
</clipPath>
</defs>
</svg>
