<svg width="50" height="50" viewBox="0 0 50 50" fill="none" xmlns="http://www.w3.org/2000/svg">
<circle cx="25" cy="25" r="24.5" stroke="white"/>
<path d="M27.2498 32.5V29.5C27.3542 28.5605 27.0848 27.6176 26.4998 26.875C28.7498 26.875 30.9998 25.375 30.9998 22.75C31.0598 21.8125 30.7973 20.89 30.2498 20.125C30.4598 19.2625 30.4598 18.3625 30.2498 17.5C30.2498 17.5 29.4998 17.5 27.9998 18.625C26.0198 18.25 23.9798 18.25 21.9998 18.625C20.4998 17.5 19.7498 17.5 19.7498 17.5C19.5248 18.3625 19.5248 19.2625 19.7498 20.125C19.2037 20.8869 18.9387 21.8146 18.9998 22.75C18.9998 25.375 21.2498 26.875 23.4998 26.875C23.2073 27.2425 22.9898 27.6625 22.8623 28.1125C22.7348 28.5625 22.6973 29.035 22.7498 29.5V32.5" stroke="white" stroke-linecap="round" stroke-linejoin="round"/>
<path d="M22.75 29.5C19.3675 31 19 28 17.5 28" stroke="white" stroke-linecap="round" stroke-linejoin="round"/>
</svg>
