<svg width="32" height="32" viewBox="0 0 32 32" fill="none" xmlns="http://www.w3.org/2000/svg">
<path d="M25.56 2.66661H6.44004C6.12103 2.65948 5.80384 2.71638 5.5072 2.83396C5.21057 2.95154 4.94053 3.12741 4.71304 3.35117C4.48556 3.57492 4.30525 3.84202 4.18278 4.13667C4.06032 4.43132 3.99818 4.74753 4.00004 5.06661V26.9333C3.99818 27.2524 4.06032 27.5686 4.18278 27.8632C4.30525 28.1579 4.48556 28.425 4.71304 28.6487C4.94053 28.8725 5.21057 29.0484 5.5072 29.1659C5.80384 29.2835 6.12103 29.3404 6.44004 29.3333H25.56C25.8786 29.3386 26.195 29.2804 26.4908 29.1622C26.7866 29.044 27.0559 28.868 27.283 28.6446C27.5101 28.4212 27.6905 28.1549 27.8136 27.8611C27.9367 27.5672 28.0001 27.2518 28 26.9333V5.06661C28.0001 4.74805 27.9367 4.43266 27.8136 4.13884C27.6905 3.84502 27.5101 3.57865 27.283 3.35526C27.0559 3.13186 26.7866 2.95592 26.4908 2.83769C26.195 2.71946 25.8786 2.6613 25.56 2.66661ZM26.6667 26.9333C26.6667 27.0745 26.6387 27.2143 26.5843 27.3446C26.5298 27.4749 26.4501 27.5931 26.3496 27.6923C26.2491 27.7915 26.13 27.8698 25.999 27.9226C25.868 27.9754 25.7279 28.0017 25.5867 27.9999H6.44004C6.29947 28.0017 6.15996 27.9754 6.02974 27.9224C5.89951 27.8694 5.78121 27.7909 5.6818 27.6915C5.58239 27.5921 5.50389 27.4738 5.45092 27.3436C5.39795 27.2134 5.37158 27.0739 5.37337 26.9333V5.06661C5.37158 4.92604 5.39795 4.78653 5.45092 4.65631C5.50389 4.52608 5.58239 4.40778 5.6818 4.30837C5.78121 4.20897 5.89951 4.13046 6.02974 4.07749C6.15996 4.02452 6.29947 3.99815 6.44004 3.99995H25.56C25.7012 3.99818 25.8414 4.02447 25.9723 4.07728C26.1033 4.1301 26.2225 4.20839 26.3229 4.30761C26.4234 4.40684 26.5032 4.52502 26.5576 4.65531C26.612 4.7856 26.64 4.92541 26.64 5.06661L26.6667 26.9333Z" fill="black"/>
<path d="M10.04 25.3333L13.04 22.6666L10.04 20V25.3333ZM17.6266 13.3333C15.9209 13.3758 14.2329 13.6909 12.6266 14.2666V6.66663H9.95996V18.2L11.84 17.3333C13.6509 16.5483 15.5886 16.0966 17.56 16C18.8933 16 19.2266 16.7333 19.2266 17.4V25.4H21.8933V17.3333C21.9288 16.8172 21.8518 16.2995 21.6676 15.8161C21.4834 15.3327 21.1965 14.895 20.8266 14.5333C20.4016 14.1281 19.899 13.8129 19.3491 13.6067C18.7992 13.4005 18.2133 13.3075 17.6266 13.3333ZM17.3333 11H20C21.0855 9.79282 21.7702 8.27893 21.96 6.66663H19.2933C19.0154 8.25312 18.3412 9.74368 17.3333 11Z" fill="black"/>
</svg>
