<svg width="32" height="32" viewBox="0 0 32 32" fill="none" xmlns="http://www.w3.org/2000/svg">
<path d="M26.6668 5.33337L24.0002 24.6667L16.0002 27.3334L8.00016 24.6667L5.3335 5.33337H26.6668Z" stroke="black" stroke-width="2" stroke-linecap="round" stroke-linejoin="round"/>
<path d="M10 10.6667H14V21.3334L11.3333 20.0001M22 10.6667H18.6667C18.4899 10.6667 18.3203 10.737 18.1953 10.862C18.0702 10.987 18 11.1566 18 11.3334V15.3334C18 15.5102 18.0702 15.6798 18.1953 15.8048C18.3203 15.9298 18.4899 16.0001 18.6667 16.0001H20.564C20.6594 16.0001 20.7537 16.0206 20.8406 16.0602C20.9274 16.0998 21.0047 16.1576 21.0673 16.2296C21.1298 16.3017 21.1762 16.3863 21.2032 16.4778C21.2303 16.5693 21.2374 16.6656 21.224 16.7601L20.6667 20.6667L18 21.3334" stroke="black" stroke-width="2" stroke-linecap="round" stroke-linejoin="round"/>
</svg>
