<svg width="32" height="32" viewBox="0 0 32 32" fill="none" xmlns="http://www.w3.org/2000/svg">
<path d="M31.526 7.24005C31.536 7.28205 31.542 7.32905 31.542 7.37005V14.24C31.5422 14.3277 31.5192 14.4139 31.4753 14.4898C31.4313 14.5657 31.3681 14.6286 31.292 14.672L25.526 17.995V24.573C25.5262 24.6607 25.5032 24.7469 25.4593 24.8228C25.4153 24.8987 25.3521 24.9616 25.276 25.005L13.24 31.932C13.2119 31.9476 13.182 31.9597 13.151 31.968L13.12 31.984C13.0363 32.005 12.9487 32.005 12.865 31.984C12.8523 31.9803 12.8402 31.9749 12.829 31.968C12.8001 31.9591 12.7722 31.947 12.746 31.932L0.714961 25.005C0.638304 24.9617 0.574389 24.899 0.529631 24.8232C0.484873 24.7474 0.460846 24.6611 0.459961 24.573V3.96405C0.459961 3.92205 0.469961 3.87505 0.480961 3.83405C0.485961 3.81805 0.490961 3.80805 0.496961 3.79205L0.527961 3.71405C0.532961 3.69805 0.548961 3.68805 0.558961 3.67205L0.605961 3.60905C0.622795 3.59865 0.638541 3.58659 0.652961 3.57305C0.673961 3.55705 0.688961 3.54205 0.709961 3.53105L6.72596 0.0670456C6.80204 0.0233563 6.88823 0.000366211 6.97596 0.000366211C7.06369 0.000366211 7.14989 0.0233563 7.22596 0.0670456L13.247 3.53105C13.268 3.54105 13.283 3.55705 13.299 3.57305L13.351 3.60905C13.3663 3.6291 13.3804 3.65014 13.393 3.67205C13.403 3.68205 13.419 3.69805 13.429 3.71405L13.46 3.79205C13.465 3.80805 13.476 3.81805 13.476 3.83405C13.4911 3.87567 13.4982 3.91978 13.497 3.96405V16.834L18.507 13.949V7.37105C18.5088 7.31195 18.5214 7.25368 18.544 7.19905L18.575 7.12105C18.585 7.10005 18.601 7.09005 18.611 7.07405C18.627 7.05305 18.637 7.03205 18.653 7.01705C18.669 7.00205 18.689 6.99105 18.705 6.98105C18.72 6.9644 18.7375 6.95022 18.757 6.93905L24.778 3.47505C24.8532 3.42889 24.9397 3.40446 25.028 3.40446C25.1162 3.40446 25.2027 3.42889 25.278 3.47505L31.294 6.93905C31.315 6.94905 31.33 6.96505 31.351 6.98105C31.367 6.99105 31.382 7.00205 31.398 7.01705C31.414 7.03205 31.429 7.05305 31.445 7.07405C31.455 7.09005 31.471 7.10005 31.476 7.12105C31.492 7.14705 31.497 7.17305 31.507 7.19905C31.517 7.20905 31.523 7.22505 31.528 7.24105L31.526 7.24005ZM30.536 13.948V8.24005L28.432 9.44805L25.526 11.125V16.833L30.536 13.948ZM24.526 24.281V18.567L21.661 20.197L13.494 24.864V30.63L24.526 24.281ZM1.45796 4.83305V24.281L12.489 30.63V24.864L6.72296 21.598C6.70196 21.588 6.68696 21.572 6.67096 21.556C6.65496 21.546 6.63496 21.535 6.62396 21.52H6.61896C6.60296 21.504 6.59296 21.484 6.57696 21.468C6.56696 21.452 6.55096 21.437 6.54096 21.416C6.52932 21.3964 6.52056 21.3752 6.51496 21.353C6.50496 21.332 6.49396 21.317 6.48896 21.296C6.48396 21.275 6.47896 21.249 6.47896 21.223C6.47396 21.202 6.46896 21.187 6.46896 21.166V7.71805L3.56296 6.04105L1.45796 4.83305ZM6.97396 1.07805L1.96396 3.96305L6.97396 6.84805L11.984 3.96305L6.97396 1.07805ZM9.58296 19.089L12.489 17.412V4.83405L10.385 6.04205L7.47396 7.71905V20.297L9.58296 19.089ZM25.026 4.48405L20.01 7.36905L25.026 10.254L30.036 7.36905L25.026 4.48405ZM24.526 11.125L19.51 8.24005V13.948L22.416 15.625L24.525 16.833L24.526 11.125ZM12.99 23.995L24.016 17.703L19.011 14.818L7.98996 21.162L12.99 23.995Z" fill="black"/>
</svg>
