<svg width="50" height="50" viewBox="0 0 50 50" fill="none" xmlns="http://www.w3.org/2000/svg">
<path d="M28 22C29.1935 22 30.3381 22.4741 31.182 23.318C32.0259 24.1619 32.5 25.3065 32.5 26.5V31.75H29.5V26.5C29.5 26.1022 29.342 25.7206 29.0607 25.4393C28.7794 25.158 28.3978 25 28 25C27.6022 25 27.2206 25.158 26.9393 25.4393C26.658 25.7206 26.5 26.1022 26.5 26.5V31.75H23.5V26.5C23.5 25.3065 23.9741 24.1619 24.818 23.318C25.6619 22.4741 26.8065 22 28 22V22ZM17.5 22.75H20.5V31.75H17.5V22.75Z" stroke="white" stroke-linecap="round" stroke-linejoin="round"/>
<path d="M19 20.5C19.8284 20.5 20.5 19.8284 20.5 19C20.5 18.1716 19.8284 17.5 19 17.5C18.1716 17.5 17.5 18.1716 17.5 19C17.5 19.8284 18.1716 20.5 19 20.5Z" stroke="white" stroke-linecap="round" stroke-linejoin="round"/>
<circle cx="25" cy="25" r="24.5" stroke="white"/>
</svg>
