<svg width="207" height="65" viewBox="0 0 207 65" fill="none" xmlns="http://www.w3.org/2000/svg">
<path d="M80.5204 27.3801C80.2187 27.1162 79.7286 27.1539 79.4646 27.4555C76.4481 30.9999 74.412 31.9048 73.5071 31.5655C72.7153 31.2638 72.2628 29.7556 72.3005 27.3801C72.3005 26.9654 72.3382 25.9473 71.5087 25.7588C70.566 25.5325 69.8873 26.626 67.8889 30.8114C67.5496 31.5278 67.2479 32.1688 67.0594 32.5458C66.8331 32.9606 66.6823 33.1868 66.5692 33.3C66.3807 32.9229 66.1167 31.9426 66.1544 30.472C66.1544 29.7179 66.1544 29.0769 66.1921 28.549C66.2298 26.89 66.2676 26.2867 65.5888 26.0227C64.9856 25.8342 64.5708 26.3998 64.4577 26.5883C62.7986 28.8507 61.3281 31.1507 59.7821 33.941C60.3854 31.3393 61.4789 27.6064 62.874 24.4768C63.0248 24.0997 62.874 23.6473 62.497 23.4964C62.1199 23.3456 61.7051 23.4964 61.5166 23.8735C60.4608 26.3244 59.4051 29.454 58.6133 32.5458C57.369 37.523 57.8591 37.7493 58.3116 37.9755C58.4247 38.0132 58.5378 38.0509 58.651 38.0509C59.028 38.0509 59.3674 37.787 59.669 37.2214C61.4789 33.7524 62.9871 31.1884 64.7216 28.6621C64.7216 29.19 64.6839 29.7933 64.6839 30.472C64.6839 31.6409 64.8347 34.4311 66.2298 34.8082C67.361 35.0721 68.0774 33.677 68.3414 33.2246C68.5676 32.8098 68.8693 32.1688 69.2086 31.4524C69.6234 30.5851 70.3021 29.1523 70.8677 28.172C70.9431 30.8114 71.6595 32.4327 73.0169 32.9229C74.8645 33.6393 77.3908 32.0934 80.5958 28.3982C80.8597 28.0966 80.822 27.6441 80.5204 27.3801Z" fill="#B91646"/>
<path d="M94.6784 27.4178C94.339 27.267 93.8865 27.4178 93.7357 27.7572C90.8701 33.6016 88.7208 35.4492 87.7028 35.2607C87.288 35.1853 85.9306 34.3934 85.5912 27.7949C85.5912 27.4933 85.365 27.2293 85.1011 27.1539C84.7994 27.0785 84.4601 27.1539 84.3092 27.4178C84.083 27.6818 83.8568 27.9834 83.6305 28.3228C82.6879 29.6048 81.4436 31.3393 79.9354 32.9606C79.7091 33.2246 79.5206 33.3754 79.4075 33.4508C79.1435 32.1311 80.5386 27.0785 82.7633 25.4948C83.4043 25.0424 84.2715 24.703 85.4404 26.0604C85.7044 26.3621 86.1568 26.3998 86.4585 26.1358C86.7601 25.9096 86.7978 25.4194 86.5716 25.1178C85.1388 23.4587 83.7814 23.4964 82.8764 23.7981C79.9731 24.8161 78.0124 30.3966 77.9369 32.9606C77.8992 34.0164 78.2009 34.6951 78.8042 34.9213C79.7468 35.2984 80.6895 34.2803 80.9911 33.941C82.2731 32.5458 83.442 31.0376 84.2715 29.8687C84.6863 34.1672 85.7044 36.3164 87.4011 36.6935C87.5519 36.6935 87.7028 36.7312 87.8536 36.7312C90.4176 36.7312 93.1701 32.2442 95.0177 28.3982C95.2062 28.0211 95.0554 27.6064 94.6784 27.4178Z" fill="#B91646"/>
<path d="M109.499 27.267C109.122 27.0785 108.67 27.2293 108.519 27.6064C104.183 36.7312 100.073 41.4067 99.168 41.2559C99.0926 41.2182 97.7729 39.9362 102.034 26.8523C102.147 26.5129 102.411 25.7211 101.807 25.3063C101.242 24.8538 100.601 25.2686 99.5451 25.985C98.4139 26.7014 96.868 27.7195 95.6614 27.5687C99.5074 20.9324 99.1303 19.4619 98.2631 18.8963C96.9057 18.1045 94.945 20.4045 94.04 21.7243C92.1924 24.5899 92.2301 27.1916 94.1908 28.5113C96.1892 29.9064 98.791 28.2097 100.337 27.1916C100.375 27.1539 100.375 27.1539 100.412 27.1162C98.9418 31.754 97.9991 35.4115 97.6598 37.9378C97.245 40.728 97.5467 42.1986 98.6024 42.6133C98.791 42.651 98.9418 42.6887 99.1303 42.6887C102.147 42.6887 107.388 33.4131 109.839 28.2474C109.99 27.8703 109.839 27.4178 109.499 27.267ZM94.2662 24.6653C94.7941 22.6292 96.5663 20.7439 97.3581 20.2914C97.2827 20.8947 96.868 22.5915 94.4548 26.7768C94.1908 26.3621 94.0023 25.7211 94.2662 24.6653Z" fill="#B91646"/>
<path d="M118.796 27.2293C118.457 27.0031 118.042 27.1162 117.816 27.4555C115.289 31.5278 111.066 35.3738 109.784 34.8459C109.633 34.7705 108.427 34.0541 110.086 27.6818C110.161 27.267 109.935 26.89 109.558 26.7768C109.143 26.7014 108.766 26.9277 108.653 27.3047C107.296 32.6213 107.484 35.4492 109.181 36.1656C109.445 36.2787 109.709 36.3164 109.973 36.3164C112.801 36.3164 117.137 31.2638 119.06 28.2097C119.248 27.8703 119.135 27.4178 118.796 27.2293ZM109.897 24.1751C111.82 24.2883 111.783 21.8751 110.237 22.403C109.445 22.6292 108.427 24.0997 109.897 24.1751Z" fill="#B91646"/>
<path d="M129.766 27.2293C129.426 27.0408 128.974 27.1162 128.785 27.4555C126.221 31.3393 121.961 37.8247 119.17 37.2214C118.718 37.1083 118.341 36.8066 118.077 36.3164C117.323 34.959 117.436 32.2442 118.303 29.8687C119.246 27.3424 120.377 26.7014 120.603 26.7391C120.641 26.7768 120.867 27.267 120.566 28.4359C120.452 28.8507 120.679 29.2277 121.056 29.3408C121.47 29.4163 121.848 29.19 121.961 28.813C122.677 26.0981 121.433 25.4948 121.056 25.344C119.661 24.9293 117.964 26.5883 116.946 29.3785C116.079 31.7163 115.701 35.0344 116.833 37.0328C117.285 37.9001 118.002 38.428 118.869 38.6165C119.095 38.6919 119.321 38.6919 119.547 38.6919C122.828 38.6919 126.372 33.7524 129.992 28.2474C130.218 27.908 130.105 27.4556 129.766 27.2293Z" fill="#B91646"/>
<path d="M141.225 27.3801C140.885 27.1539 140.433 27.2293 140.206 27.5687C137.379 31.5278 135.078 34.0164 132.816 35.6377C131.685 36.4296 130.591 36.5804 129.875 36.0525C129.423 35.7131 128.027 34.2049 129.649 28.9261C133.306 25.9096 135.305 23.044 134.777 21.5357C134.588 21.0833 134.136 20.7816 133.646 20.7816C132.137 20.8193 129.837 23.421 128.329 28.2851C126.482 34.2803 127.99 36.4673 129.046 37.2214C129.573 37.6361 130.177 37.8247 130.855 37.8247C131.723 37.8247 132.703 37.4853 133.646 36.8066C136.059 35.0721 138.434 32.5081 141.375 28.3982C141.602 28.0588 141.526 27.6064 141.225 27.3801ZM133.344 22.3653C133.193 22.9685 132.552 24.1751 130.78 25.985C131.76 23.7981 132.816 22.7423 133.344 22.3653Z" fill="#B91646"/>
<path d="M150.538 0.458127C150.275 0.118774 149.897 -0.0320497 149.52 0.00565574C147.371 0.382714 145.071 8.41407 144.43 10.865C142.545 18.0668 140.169 28.2851 138.246 37.4476C137.341 41.7838 136.625 45.4413 136.173 48.0807C135.418 52.53 135.532 53.0956 136.248 53.2841C136.323 53.3218 136.399 53.3218 136.474 53.3218C137.153 53.3218 137.492 52.4169 137.832 51.4365C137.945 51.0594 137.756 50.6447 137.379 50.5316C137.341 50.4939 137.304 50.4939 137.266 50.4939C138.058 45.0642 141.301 29.2654 144.619 16.0307C144.619 15.993 144.656 15.9553 144.694 15.9175C149.596 8.15013 151.519 1.96636 150.538 0.458127ZM145.901 10.9404C147.333 5.62384 148.615 3.05983 149.294 2.00407C149.143 3.39919 148.314 6.41566 145.901 10.9404Z" fill="#B91646"/>
<path d="M15.4217 37.8623V41.369H4.29847V49.0987H12.9708V52.6053H4.29847V64.0679H0V37.8623H15.4217Z" fill="white"/>
<path d="M31.358 64.3318C28.9197 64.3318 26.6699 63.7663 24.6087 62.6351C22.5726 61.4788 20.9512 59.8825 19.7446 57.8464C18.5632 55.7852 17.9725 53.4725 17.9725 50.9085C17.9725 48.3445 18.5632 46.0445 19.7446 44.0084C20.9512 41.9722 22.5726 40.3886 24.6087 39.2574C26.6699 38.1011 28.9197 37.5229 31.358 37.5229C33.8215 37.5229 36.0713 38.1011 38.1074 39.2574C40.1687 40.3886 41.79 41.9722 42.9715 44.0084C44.1529 46.0445 44.7436 48.3445 44.7436 50.9085C44.7436 53.4725 44.1529 55.7852 42.9715 57.8464C41.79 59.8825 40.1687 61.4788 38.1074 62.6351C36.0713 63.7663 33.8215 64.3318 31.358 64.3318ZM31.358 60.599C33.0925 60.599 34.6385 60.2093 35.9959 59.4301C37.3533 58.6257 38.409 57.4945 39.1632 56.0365C39.9424 54.5534 40.3321 52.8441 40.3321 50.9085C40.3321 48.973 39.9424 47.2762 39.1632 45.8182C38.409 44.3603 37.3533 43.2417 35.9959 42.4624C34.6385 41.6832 33.0925 41.2935 31.358 41.2935C29.6236 41.2935 28.0776 41.6832 26.7202 42.4624C25.3628 43.2417 24.2945 44.3603 23.5152 45.8182C22.7611 47.2762 22.384 48.973 22.384 50.9085C22.384 52.8441 22.7611 54.5534 23.5152 56.0365C24.2945 57.4945 25.3628 58.6257 26.7202 59.4301C28.0776 60.2093 29.6236 60.599 31.358 60.599Z" fill="white"/>
<path d="M62.5853 64.0679L56.5524 53.5857H53.2719V64.0679H48.9735V37.8623H58.0229C60.0339 37.8623 61.7306 38.2142 63.1132 38.9181C64.5209 39.6219 65.5641 40.5646 66.2428 41.746C66.9466 42.9275 67.2985 44.2472 67.2985 45.7051C67.2985 47.4145 66.7958 48.973 65.7903 50.3807C64.81 51.7632 63.2891 52.7059 61.2279 53.2086L67.7133 64.0679H62.5853ZM53.2719 50.1544H58.0229C59.6317 50.1544 60.8383 49.7522 61.6427 48.9478C62.4722 48.1434 62.887 47.0625 62.887 45.7051C62.887 44.3477 62.4848 43.292 61.6804 42.5378C60.876 41.7586 59.6568 41.369 58.0229 41.369H53.2719V50.1544Z" fill="white"/>
<path d="M94.3275 64.0679H90.029L77.0959 44.4985V64.0679H72.7974V37.8246H77.0959L90.029 57.3563V37.8246H94.3275V64.0679Z" fill="white"/>
<path d="M115.771 58.7137H104.799L102.913 64.0679H98.4262L107.815 37.8246H112.792L122.181 64.0679H117.656L115.771 58.7137ZM114.564 55.207L110.304 43.028L106.005 55.207H114.564Z" fill="white"/>
<path d="M130.562 60.599H139.423V64.0679H126.263V37.8623H130.562V60.599Z" fill="white"/>
<path d="M147.316 41.3312V49.0232H156.365V52.5299H147.316V60.5613H157.496V64.0679H143.017V37.8246H157.496V41.3312H147.316Z" fill="white"/>
<path d="M166.938 60.335H179.117V64.0679H161.848V60.7121L173.989 41.5952H161.848V37.8623H179.117V41.2181L166.938 60.335Z" fill="white"/>
<path d="M199.615 58.7137H188.643L186.757 64.0679H182.27L191.659 37.8246H196.636L206.025 64.0679H201.5L199.615 58.7137ZM198.408 55.207L194.148 43.028L189.849 55.207H198.408Z" fill="white"/>
</svg>
