<svg width="701" height="219" viewBox="0 0 701 219" fill="none" xmlns="http://www.w3.org/2000/svg">
<path d="M274.317 93.456C273.293 92.56 271.629 92.688 270.733 93.712C260.493 105.744 253.581 108.816 250.509 107.664C247.821 106.64 246.285 101.52 246.413 93.456C246.413 92.048 246.541 88.592 243.725 87.952C240.525 87.184 238.221 90.896 231.437 105.104C230.285 107.536 229.261 109.712 228.621 110.992C227.853 112.4 227.341 113.168 226.957 113.552C226.317 112.272 225.421 108.944 225.549 103.952C225.549 101.392 225.549 99.216 225.677 97.424C225.805 91.792 225.933 89.744 223.629 88.848C221.581 88.208 220.173 90.128 219.789 90.768C214.157 98.448 209.165 106.256 203.917 115.728C205.965 106.896 209.677 94.224 214.413 83.6C214.925 82.32 214.413 80.784 213.133 80.272C211.853 79.76 210.445 80.272 209.805 81.552C206.221 89.872 202.637 100.496 199.949 110.992C195.725 127.888 197.389 128.656 198.925 129.424C199.309 129.552 199.693 129.68 200.077 129.68C201.357 129.68 202.509 128.784 203.533 126.864C209.677 115.088 214.797 106.384 220.685 97.808C220.685 99.6 220.557 101.648 220.557 103.952C220.557 107.92 221.069 117.392 225.805 118.672C229.645 119.568 232.077 114.832 232.973 113.296C233.741 111.888 234.765 109.712 235.917 107.28C237.325 104.336 239.629 99.472 241.549 96.144C241.805 105.104 244.237 110.608 248.845 112.272C255.117 114.704 263.693 109.456 274.573 96.912C275.469 95.888 275.341 94.352 274.317 93.456Z" fill="#B91646"/>
<path d="M322.379 93.584C321.227 93.072 319.691 93.584 319.179 94.736C309.451 114.576 302.155 120.848 298.699 120.208C297.291 119.952 292.683 117.264 291.531 94.864C291.531 93.84 290.763 92.944 289.867 92.688C288.843 92.432 287.691 92.688 287.179 93.584C286.411 94.48 285.643 95.504 284.875 96.656C281.675 101.008 277.451 106.896 272.331 112.4C271.563 113.296 270.923 113.808 270.539 114.064C269.643 109.584 274.379 92.432 281.931 87.056C284.107 85.52 287.051 84.368 291.019 88.976C291.915 90 293.451 90.128 294.475 89.232C295.499 88.464 295.627 86.8 294.859 85.776C289.995 80.144 285.387 80.272 282.315 81.296C272.459 84.752 265.803 103.696 265.547 112.4C265.419 115.984 266.443 118.288 268.491 119.056C271.691 120.336 274.891 116.88 275.915 115.728C280.267 110.992 284.235 105.872 287.051 101.904C288.459 116.496 291.915 123.792 297.675 125.072C298.187 125.072 298.699 125.2 299.211 125.2C307.915 125.2 317.259 109.968 323.531 96.912C324.171 95.632 323.659 94.224 322.379 93.584Z" fill="#B91646"/>
<path d="M372.692 93.072C371.412 92.432 369.876 92.944 369.364 94.224C354.644 125.2 340.692 141.072 337.62 140.56C337.364 140.432 332.884 136.08 347.348 91.664C347.732 90.512 348.628 87.824 346.58 86.416C344.66 84.88 342.484 86.288 338.9 88.72C335.06 91.152 329.812 94.608 325.716 94.096C338.772 71.568 337.492 66.576 334.548 64.656C329.94 61.968 323.284 69.776 320.212 74.256C313.94 83.984 314.068 92.816 320.724 97.296C327.508 102.032 336.34 96.272 341.588 92.816C341.716 92.688 341.716 92.688 341.844 92.56C336.852 108.304 333.652 120.72 332.5 129.296C331.092 138.768 332.116 143.76 335.7 145.168C336.34 145.296 336.852 145.424 337.492 145.424C347.732 145.424 365.524 113.936 373.844 96.4C374.356 95.12 373.844 93.584 372.692 93.072ZM320.98 84.24C322.772 77.328 328.788 70.928 331.476 69.392C331.22 71.44 329.812 77.2 321.62 91.408C320.724 90 320.084 87.824 320.98 84.24Z" fill="#B91646"/>
<path d="M404.251 92.944C403.099 92.176 401.691 92.56 400.923 93.712C392.347 107.536 378.011 120.592 373.659 118.8C373.147 118.544 369.051 116.112 374.683 94.48C374.939 93.072 374.171 91.792 372.891 91.408C371.483 91.152 370.203 91.92 369.819 93.2C365.211 111.248 365.851 120.848 371.611 123.28C372.507 123.664 373.403 123.792 374.299 123.792C383.899 123.792 398.619 106.64 405.147 96.272C405.787 95.12 405.403 93.584 404.251 92.944ZM374.043 82.576C380.571 82.96 380.443 74.768 375.195 76.56C372.507 77.328 369.051 82.32 374.043 82.576Z" fill="#B91646"/>
<path d="M441.49 92.944C440.338 92.304 438.802 92.56 438.162 93.712C429.458 106.896 414.994 128.912 405.522 126.864C403.986 126.48 402.706 125.456 401.81 123.792C399.25 119.184 399.634 109.968 402.578 101.904C405.778 93.328 409.618 91.152 410.386 91.28C410.514 91.408 411.282 93.072 410.258 97.04C409.874 98.448 410.642 99.728 411.922 100.112C413.33 100.368 414.61 99.6 414.994 98.32C417.426 89.104 413.202 87.056 411.922 86.544C407.186 85.136 401.426 90.768 397.97 100.24C395.026 108.176 393.746 119.44 397.586 126.224C399.122 129.168 401.554 130.96 404.498 131.6C405.266 131.856 406.034 131.856 406.802 131.856C417.938 131.856 429.97 115.088 442.258 96.4C443.026 95.248 442.642 93.712 441.49 92.944Z" fill="#B91646"/>
<path d="M480.389 93.456C479.237 92.688 477.701 92.944 476.933 94.096C467.333 107.536 459.525 115.984 451.845 121.488C448.005 124.176 444.293 124.688 441.861 122.896C440.325 121.744 435.589 116.624 441.093 98.704C453.509 88.464 460.293 78.736 458.501 73.616C457.861 72.08 456.325 71.056 454.661 71.056C449.541 71.184 441.733 80.016 436.613 96.528C430.341 116.88 435.461 124.304 439.045 126.864C440.837 128.272 442.885 128.912 445.189 128.912C448.133 128.912 451.461 127.76 454.661 125.456C462.853 119.568 470.917 110.864 480.901 96.912C481.669 95.76 481.413 94.224 480.389 93.456ZM453.637 76.432C453.125 78.48 450.949 82.576 444.933 88.72C448.261 81.296 451.845 77.712 453.637 76.432Z" fill="#B91646"/>
<path d="M512.007 2.06399C511.111 0.911991 509.831 0.39999 508.551 0.527989C501.255 1.80799 493.447 29.072 491.271 37.392C484.871 61.84 476.807 96.528 470.279 127.632C467.207 142.352 464.775 154.768 463.239 163.728C460.679 178.832 461.063 180.752 463.495 181.392C463.751 181.52 464.007 181.52 464.263 181.52C466.567 181.52 467.719 178.448 468.871 175.12C469.255 173.84 468.615 172.432 467.335 172.048C467.207 171.92 467.079 171.92 466.951 171.92C469.639 153.488 480.647 99.856 491.911 54.928C491.911 54.8 492.039 54.672 492.167 54.544C508.807 28.176 515.335 7.18399 512.007 2.06399ZM496.263 37.648C501.127 19.6 505.479 10.896 507.783 7.31199C507.271 12.048 504.455 22.288 496.263 37.648Z" fill="#B91646"/>
<path d="M53.327 129.04V140.944H15.567V167.184H45.007V179.088H15.567V218H0.974976V129.04H53.327Z" fill="black"/>
<path d="M107.426 218.896C99.1486 218.896 91.5113 216.976 84.514 213.136C77.602 209.211 72.098 203.792 68.002 196.88C63.9913 189.883 61.986 182.032 61.986 173.328C61.986 164.624 63.9913 156.816 68.002 149.904C72.098 142.992 77.602 137.616 84.514 133.776C91.5113 129.851 99.1486 127.888 107.426 127.888C115.789 127.888 123.426 129.851 130.338 133.776C137.335 137.616 142.839 142.992 146.85 149.904C150.861 156.816 152.866 164.624 152.866 173.328C152.866 182.032 150.861 189.883 146.85 196.88C142.839 203.792 137.335 209.211 130.338 213.136C123.426 216.976 115.789 218.896 107.426 218.896ZM107.426 206.224C113.314 206.224 118.562 204.901 123.17 202.256C127.778 199.525 131.362 195.685 133.922 190.736C136.567 185.701 137.89 179.899 137.89 173.328C137.89 166.757 136.567 160.997 133.922 156.048C131.362 151.099 127.778 147.301 123.17 144.656C118.562 142.011 113.314 140.688 107.426 140.688C101.538 140.688 96.29 142.011 91.682 144.656C87.074 147.301 83.4473 151.099 80.802 156.048C78.242 160.997 76.962 166.757 76.962 173.328C76.962 179.899 78.242 185.701 80.802 190.736C83.4473 195.685 87.074 199.525 91.682 202.256C96.29 204.901 101.538 206.224 107.426 206.224Z" fill="black"/>
<path d="M213.433 218L192.953 182.416H181.817V218H167.225V129.04H197.945C204.772 129.04 210.532 130.235 215.225 132.624C220.004 135.013 223.545 138.213 225.849 142.224C228.238 146.235 229.433 150.715 229.433 155.664C229.433 161.467 227.726 166.757 224.313 171.536C220.985 176.229 215.822 179.429 208.825 181.136L230.841 218H213.433ZM181.817 170.768H197.945C203.406 170.768 207.502 169.403 210.233 166.672C213.049 163.941 214.457 160.272 214.457 155.664C214.457 151.056 213.092 147.472 210.361 144.912C207.63 142.267 203.492 140.944 197.945 140.944H181.817V170.768Z" fill="black"/>
<path d="M321.188 218H306.596L262.692 151.568V218H248.1V128.912H262.692L306.596 195.216V128.912H321.188V218Z" fill="black"/>
<path d="M393.982 199.824H356.734L350.334 218H335.102L366.974 128.912H383.87L415.742 218H400.382L393.982 199.824ZM389.886 187.92L375.422 146.576L360.83 187.92H389.886Z" fill="black"/>
<path d="M444.192 206.224H474.272V218H429.6V129.04H444.192V206.224Z" fill="black"/>
<path d="M501.067 140.816V166.928H531.787V178.832H501.067V206.096H535.627V218H486.475V128.912H535.627V140.816H501.067Z" fill="black"/>
<path d="M567.68 205.328H609.024V218H550.4V206.608L591.616 141.712H550.4V129.04H609.024V140.432L567.68 205.328Z" fill="black"/>
<path d="M678.607 199.824H641.359L634.959 218H619.727L651.599 128.912H668.495L700.367 218H685.007L678.607 199.824ZM674.511 187.92L660.047 146.576L645.455 187.92H674.511Z" fill="black"/>
</svg>
