<svg width="32" height="32" viewBox="0 0 32 32" fill="none" xmlns="http://www.w3.org/2000/svg">
<path d="M18.3198 5.64005C17.1998 4.30672 16.2265 2.97339 16.0398 2.68005H15.9998C15.8131 2.96005 14.8398 4.30672 13.7198 5.64005C4.11981 17.8934 15.2398 26.1601 15.2398 26.1601L15.3331 26.2267C15.4131 27.4934 15.6265 29.3334 15.6265 29.3334H16.4531C16.4531 29.3334 16.6531 27.5067 16.7331 26.2267L16.8265 26.1467C16.8265 26.1467 27.9198 17.8934 18.3198 5.64005ZM15.9998 25.9734C15.7661 25.7814 15.5518 25.5671 15.3598 25.3334L15.9998 12.0001L16.5998 25.3334C16.4199 25.5647 16.2191 25.779 15.9998 25.9734Z" fill="black"/>
</svg>
