<svg width="32" height="32" viewBox="0 0 32 32" fill="none" xmlns="http://www.w3.org/2000/svg">
<path d="M18.6666 19.8934H10.8C9.65338 19.8934 8.98662 20.6 8.98662 21.6134C8.98662 22.52 9.6 23.16 10.48 23.16C11.5066 23.16 12.0934 22.4534 12.1466 21.44H14.4266C14.3066 23.92 12.76 25.24 10.4534 25.24C8.29338 25.24 6.68 23.7734 6.68 21.5866C6.68 19.3066 8.37337 17.72 10.92 17.72H18.7066C21.3334 17.72 23.3334 15.7866 23.3334 13.1866C23.3334 10.56 21.5466 8.70662 19 8.70662C16.48 8.70662 14.44 10.5466 14.44 13.9466V16.1734H12.1334V13.9466C12.1334 9.44 15.0266 6.52 19.04 6.52C22.8666 6.52 25.6534 9.26662 25.6534 13.16C25.68 17.0534 22.6934 19.8934 18.6666 19.8934ZM16 32C24.9466 32 32 24.92 32 16C32 7.08 24.9466 0 16 0C7.05338 0 0 7.10662 0 16C0 24.92 7.05338 32 16 32Z" fill="white"/>
</svg>
