<svg width="32" height="32" viewBox="0 0 32 32" fill="none" xmlns="http://www.w3.org/2000/svg">
<path d="M22.4069 1.33337C21.2332 1.34199 20.0659 1.50791 18.9362 1.82671L18.8562 1.85071C18.1446 1.72885 17.4248 1.66154 16.7029 1.64937C15.2189 1.62404 13.9429 1.97337 12.9162 2.55604C11.9029 2.21471 9.80157 1.62671 7.58691 1.74404C6.04424 1.82537 4.36158 2.28004 3.11491 3.55737C1.87091 4.83471 1.21358 6.81071 1.35224 9.50004C1.38958 10.2427 1.60691 11.452 1.96958 13.02C2.32958 14.5867 2.83891 16.42 3.47224 18.0934C4.10558 19.768 4.80024 21.272 5.88558 22.2934C6.42691 22.8054 7.17224 23.236 8.05091 23.2C8.66824 23.176 9.22691 22.9134 9.70824 22.5254C9.94291 22.8254 10.1936 22.956 10.4216 23.0774C10.7082 23.2294 10.9882 23.3334 11.2776 23.4027C12.0789 23.6078 12.9133 23.6491 13.7309 23.524C14.0869 23.4667 14.4616 23.3547 14.8349 23.1947C14.8482 23.5974 14.8642 23.992 14.8816 24.392C14.9322 25.6587 14.9656 26.828 15.3576 27.8534C15.4202 28.0214 15.5922 28.884 16.2736 29.6454C16.9536 30.408 18.2869 30.8827 19.8042 30.568C20.8749 30.3454 22.2376 29.944 23.1416 28.696C24.0349 27.4614 24.4389 25.6894 24.5189 22.8174C24.5389 22.6627 24.5629 22.5307 24.5882 22.4067L24.8016 22.4254H24.8256C25.9682 22.476 27.2082 22.3187 28.2442 21.852C29.1616 21.4387 29.8549 21.0227 30.3602 20.2827C30.4869 20.1 30.6256 19.8787 30.6629 19.496C30.7002 19.116 30.4762 18.5187 30.1016 18.244C29.3509 17.692 28.8802 17.9014 28.3749 18.004C27.8776 18.1107 27.3709 18.1694 26.8602 18.1814C28.3176 15.8027 29.3616 13.2747 29.9576 11.0374C30.3096 9.71737 30.5082 8.50004 30.5242 7.43604C30.5402 6.37204 30.4509 5.42937 29.7936 4.61337C27.7389 2.06671 24.8496 1.36271 22.6149 1.33871C22.5456 1.33737 22.4762 1.33604 22.4069 1.33737V1.33337ZM22.3482 2.11604C24.4616 2.09604 27.1629 2.67204 29.1016 5.07604C29.5376 5.61604 29.6669 6.40537 29.6522 7.37871C29.6362 8.35071 29.4509 9.51337 29.1122 10.788C28.4549 13.2574 27.2122 16.1347 25.4616 18.7187C25.5239 18.7615 25.591 18.7969 25.6616 18.824C26.0269 18.9707 26.8589 19.096 28.5216 18.7654C28.9389 18.6787 29.2456 18.6214 29.5629 18.856C29.639 18.9189 29.6994 18.9986 29.7395 19.0889C29.7795 19.1791 29.798 19.2774 29.7936 19.376C29.7762 19.525 29.7197 19.6668 29.6296 19.7867C29.3096 20.2547 28.6749 20.6987 27.8616 21.064C27.1429 21.3894 26.1109 21.5587 25.1962 21.5694C24.7376 21.5734 24.3149 21.5387 23.9562 21.4307L23.9322 21.4227C23.7936 22.7174 23.4749 25.276 23.2682 26.4427C23.1016 27.384 22.8109 28.132 22.2549 28.692C21.7002 29.252 20.9162 29.5894 19.8602 29.8094C18.5522 30.0814 17.5989 29.788 16.9842 29.2854C16.3709 28.7854 16.0896 28.12 15.9202 27.712C15.8042 27.432 15.7442 27.068 15.6856 26.5814C15.6212 25.9987 15.578 25.4139 15.5562 24.828C15.5178 23.8005 15.5053 22.7722 15.5189 21.744C14.9722 22.2294 14.2922 22.552 13.5629 22.6734C12.6962 22.816 11.9202 22.676 11.4576 22.564C11.2307 22.5082 11.0114 22.4254 10.8042 22.3174C10.5882 22.2067 10.3842 22.0814 10.2482 21.8334C10.1681 21.6918 10.1425 21.5258 10.1762 21.3667C10.2198 21.205 10.3166 21.0627 10.4509 20.9627C10.7016 20.7654 11.0309 20.656 11.5282 20.5547C12.4349 20.3747 12.7509 20.2507 12.9429 20.1027C13.1069 19.976 13.2922 19.72 13.6202 19.3427C13.6186 19.3263 13.6173 19.3098 13.6162 19.2934C13.0313 19.2775 12.4579 19.1274 11.9402 18.8547C11.7522 19.048 10.7869 20.0387 9.60957 21.412C9.11491 21.9867 8.56824 22.316 7.99091 22.34C7.41358 22.364 6.89224 22.0814 6.44957 21.6654C5.56291 20.8307 4.85624 19.3947 4.24024 17.772C3.62691 16.148 3.12558 14.34 2.77091 12.8C2.41358 11.26 2.20291 10.0187 2.17358 9.42004C2.04024 6.87471 2.65358 5.16004 3.70691 4.07871C4.76024 2.99737 6.20291 2.58804 7.61091 2.50937C10.1362 2.36804 12.5349 3.22271 13.0202 3.40671C13.9549 2.79071 15.1589 2.40671 16.6642 2.43071C17.3777 2.44046 18.0879 2.52991 18.7816 2.69737L18.8069 2.68671C19.1122 2.58271 19.4229 2.49471 19.7376 2.42537C20.5941 2.23165 21.4688 2.12886 22.3469 2.11871V2.11604H22.3482ZM22.5389 2.93471H22.3562C21.6348 2.94444 20.916 3.02302 20.2096 3.16937C21.6119 3.78005 22.844 4.72381 23.7989 5.91871C24.3771 6.63369 24.857 7.42294 25.2256 8.26537C25.3642 8.58804 25.4576 8.86137 25.5096 9.07204C25.5362 9.17871 25.5549 9.26804 25.5602 9.36137C25.5654 9.42045 25.5604 9.47996 25.5456 9.53737L25.5376 9.55337C25.5762 10.624 25.3029 11.3494 25.2696 12.3707C25.2442 13.112 25.4389 13.9827 25.4869 14.9307C25.5322 15.824 25.4216 16.804 24.8242 17.7667C24.8749 17.8254 24.9202 17.884 24.9682 17.9427C26.5482 15.5294 27.6882 12.8574 28.2949 10.5814C28.6189 9.35471 28.7922 8.24404 28.8069 7.36404C28.8202 6.48404 28.6509 5.84537 28.4349 5.58004C26.7442 3.48271 24.4576 2.94804 22.5389 2.93337V2.93471ZM16.5056 3.24804C15.0162 3.25071 13.9469 3.68804 13.1376 4.34137C12.3016 5.01737 11.7416 5.94137 11.3736 6.88937C11.0173 7.83674 10.7995 8.83052 10.7269 9.84004L10.7442 9.83071C11.1936 9.58537 11.7842 9.34137 12.4162 9.20004C13.0496 9.05871 13.7309 9.01471 14.3482 9.24671C14.9656 9.48004 15.4762 10.0254 15.6616 10.8547C16.5482 14.836 15.3856 16.316 14.9562 17.432C14.7938 17.8367 14.6544 18.2502 14.5389 18.6707C14.5936 18.6574 14.6482 18.644 14.7016 18.6387C14.9358 18.626 15.1695 18.6719 15.3816 18.772C15.8136 18.9454 16.1096 19.308 16.2696 19.724C16.3109 19.8334 16.3416 19.9507 16.3589 20.0707C16.3776 20.1214 16.3856 20.1734 16.3842 20.2267C16.3364 21.7491 16.3417 23.2727 16.4002 24.7947C16.4296 25.4534 16.4722 26.032 16.5269 26.4894C16.5802 26.9454 16.6576 27.292 16.7069 27.4094C16.8669 27.8014 17.1029 28.3134 17.5296 28.6614C17.9562 29.008 18.5656 29.24 19.6816 29.008C20.6496 28.8067 21.2469 28.528 21.6469 28.124C22.0442 27.7227 22.2829 27.164 22.4349 26.3067C22.6629 25.0227 23.1216 21.3014 23.1762 20.6C23.1522 20.0734 23.2322 19.6667 23.4056 19.3574C23.5856 19.04 23.8629 18.8454 24.1016 18.74C24.2216 18.6867 24.3336 18.652 24.4256 18.6267C24.3279 18.4908 24.2256 18.3583 24.1189 18.2294C23.7751 17.8253 23.4926 17.3729 23.2802 16.8867C23.1788 16.6863 23.0708 16.4893 22.9562 16.296C22.7896 16.0027 22.5776 15.636 22.3562 15.224C21.9122 14.3987 21.4296 13.3987 21.1789 12.424C20.9296 11.452 20.8922 10.4454 21.5322 9.73471C22.1002 9.10404 23.0949 8.84271 24.5896 8.98937C24.5456 8.86137 24.5189 8.75471 24.4442 8.58404C24.1052 7.81029 23.6644 7.08523 23.1336 6.42804C21.8669 4.85737 19.8176 3.30004 16.6496 3.24937H16.5056V3.24804ZM8.13758 3.31071C7.97758 3.31071 7.81758 3.31604 7.65758 3.32404C6.38558 3.39471 5.18291 3.75337 4.32291 4.63871C3.46024 5.52271 2.89358 6.97337 3.01624 9.37604C3.04158 9.82937 3.24558 11.104 3.59491 12.616C3.94424 14.1307 4.44024 15.9107 5.03491 17.4827C5.62958 19.056 6.35224 20.4254 7.03758 21.0734C7.38291 21.3974 7.68291 21.528 7.95491 21.5174C8.22824 21.504 8.55624 21.352 8.95891 20.884C9.69225 20.0259 10.4526 19.1913 11.2389 18.3814C10.6836 17.9153 10.256 17.3156 9.99624 16.6387C9.73988 15.9679 9.66179 15.242 9.76958 14.532C9.89891 13.628 9.91624 12.7827 9.90158 12.116C9.88558 11.4654 9.83757 11.0334 9.83757 10.7627V10.7254C9.83638 9.31624 10.0888 7.91839 10.5829 6.59871C10.9349 5.68937 11.4602 4.76537 12.2482 4.01737C11.4749 3.77071 10.1016 3.39471 8.61491 3.32404C8.45504 3.3157 8.29499 3.31126 8.13491 3.31071H8.13758ZM23.7562 9.76671C22.9016 9.77737 22.4216 9.99204 22.1696 10.272C21.8122 10.6694 21.7789 11.3654 22.0002 12.224C22.2202 13.0827 22.6762 14.044 23.1056 14.8414C23.3189 15.2414 23.5269 15.6014 23.6949 15.892C23.8642 16.1854 23.9882 16.3934 24.0629 16.572C24.1322 16.7347 24.2096 16.8787 24.2869 17.0134C24.6176 16.3347 24.6776 15.6694 24.6429 14.9747C24.5989 14.116 24.3936 13.2374 24.4242 12.348C24.4576 11.308 24.6696 10.6294 24.6882 9.82537C24.3791 9.78652 24.0678 9.76693 23.7562 9.76671ZM13.3829 9.90671C13.1217 9.90913 12.8616 9.93953 12.6069 9.99737C12.1007 10.1166 11.6121 10.3012 11.1536 10.5467C11.0002 10.6267 10.8522 10.72 10.7136 10.8254L10.6869 10.8494C10.6949 11.028 10.7309 11.4614 10.7469 12.0974C10.7602 12.7947 10.7442 13.684 10.6056 14.644C10.3042 16.7347 11.8669 18.4654 13.7042 18.468C13.8109 18.0387 13.9882 17.604 14.1642 17.1454C14.6762 15.808 15.6829 14.8334 14.8349 11.0267C14.6962 10.404 14.4216 10.152 14.0429 10.0094C13.8307 9.93661 13.6072 9.90185 13.3829 9.90671ZM23.3562 10.156H23.4202C23.5029 10.1587 23.5802 10.168 23.6469 10.1827C23.7083 10.1949 23.7669 10.218 23.8202 10.2507C23.8444 10.2652 23.8652 10.2845 23.8815 10.3075C23.8978 10.3304 23.9092 10.3565 23.9149 10.384V10.3947C23.917 10.4532 23.9012 10.5108 23.8696 10.56C23.8322 10.6271 23.7855 10.6886 23.7309 10.7427C23.6019 10.8801 23.4314 10.9715 23.2456 11.0027C23.0635 11.0243 22.8798 10.9793 22.7282 10.876C22.6669 10.8362 22.6117 10.7877 22.5642 10.732C22.5235 10.6891 22.4958 10.6355 22.4842 10.5774C22.4814 10.5489 22.4847 10.5201 22.4939 10.4929C22.5031 10.4658 22.518 10.441 22.5376 10.42C22.5794 10.3744 22.6297 10.3373 22.6856 10.3107C22.8962 10.2122 23.1251 10.1586 23.3576 10.1534V10.156H23.3562ZM13.5056 10.3614C13.5722 10.3614 13.6429 10.368 13.7149 10.3774C13.9069 10.404 14.0789 10.4534 14.2096 10.5267C14.2736 10.56 14.3296 10.6027 14.3776 10.656C14.4025 10.6845 14.4215 10.7175 14.4336 10.7534C14.4455 10.789 14.4496 10.8267 14.4456 10.864C14.4331 10.9346 14.4002 11 14.3509 11.052C14.2992 11.114 14.2385 11.168 14.1709 11.212C14.0054 11.3249 13.8044 11.3737 13.6056 11.3494C13.4036 11.3174 13.218 11.2194 13.0776 11.0707C13.0184 11.0116 12.9681 10.9442 12.9282 10.8707C12.8867 10.8068 12.8684 10.7305 12.8762 10.6547C12.8949 10.5214 13.0082 10.4547 13.1162 10.4147C13.2413 10.3763 13.3722 10.36 13.5029 10.3667L13.5056 10.3614ZM24.9189 19.3374H24.9149C24.7296 19.404 24.5776 19.4307 24.4482 19.484C24.3196 19.5321 24.2129 19.6255 24.1482 19.7467C24.0682 19.8867 24.0016 20.136 24.0216 20.56C24.0789 20.5981 24.1419 20.6269 24.2082 20.6454C24.4229 20.7094 24.7842 20.752 25.1882 20.7454C25.9909 20.736 26.9802 20.5547 27.5056 20.3174C27.9362 20.1227 28.3362 19.8694 28.6936 19.5654C26.9376 19.9174 25.9469 19.824 25.3376 19.58C25.1869 19.5196 25.0458 19.4374 24.9189 19.336V19.3374ZM14.8016 19.452H14.7749C14.7082 19.4574 14.6109 19.4787 14.4242 19.6814C13.9842 20.1587 13.8322 20.4574 13.4696 20.7374C13.1096 21.0174 12.6389 21.1654 11.7002 21.352C11.4029 21.4107 11.2336 21.476 11.1189 21.528C11.1562 21.5574 11.1522 21.5654 11.2069 21.5934C11.3442 21.6667 11.5216 21.7307 11.6629 21.7667C12.0669 21.864 12.7296 21.9787 13.4216 21.864C14.1122 21.7494 14.8322 21.428 15.4456 20.5934C15.5522 20.4494 15.5629 20.236 15.4762 20.0067C15.3869 19.78 15.1949 19.5827 15.0589 19.5267C14.9775 19.4892 14.8906 19.4649 14.8016 19.4547V19.452Z" fill="white"/>
</svg>
