<svg width="32" height="32" viewBox="0 0 32 32" fill="none" xmlns="http://www.w3.org/2000/svg">
<path d="M8 12.7917C9.06637 8.51419 11.7336 6.375 16 6.375C22.4 6.375 23.2 11.1875 26.4 11.9896C28.5336 12.5246 30.4 11.7225 32 9.58331C30.9336 13.8608 28.2664 16 24 16C17.6 16 16.8 11.1875 13.6 10.3854C11.4664 9.85044 9.6 10.6525 8 12.7917ZM0 22.4167C1.06638 18.1392 3.73362 16 8 16C14.4 16 15.2 20.8125 18.4 21.6146C20.5336 22.1496 22.4 21.3475 24 19.2083C22.9336 23.4858 20.2664 25.625 16 25.625C9.6 25.625 8.8 20.8125 5.6 20.0104C3.46637 19.4754 1.6 20.2775 0 22.4167Z" fill="black"/>
</svg>
