<svg width="148" height="30" viewBox="0 0 148 30" fill="none" xmlns="http://www.w3.org/2000/svg">
<g clip-path="url(#clip0_276_124)">
<path d="M141.118 8.57587V29.518H146.926V8.57587H141.118Z" fill="#858585"/>
<path d="M141.813 5.01737C142.432 5.59 143.172 5.87632 144.036 5.87632C144.899 5.87632 145.635 5.59 146.245 5.01737C146.863 4.43565 147.172 3.74031 147.172 2.93134C147.172 2.13148 146.863 1.44522 146.245 0.872588C145.635 0.290862 144.899 0 144.036 0C143.172 0 142.432 0.290862 141.813 0.872588C141.205 1.44522 140.9 2.13148 140.9 2.93134C140.9 3.74031 141.205 4.43565 141.813 5.01737Z" fill="#858585"/>
<path d="M125.847 17.4108V29.518H120.039V1.59521H125.684V12.2708H125.929C126.401 11.0346 127.165 10.0666 128.219 9.3667C129.274 8.65773 130.597 8.30325 132.187 8.30325C133.642 8.30325 134.909 8.62136 135.991 9.25758C137.082 9.88478 137.927 10.7892 138.527 11.9708C139.136 13.1434 139.436 14.5477 139.427 16.1838V29.518H133.618V17.2199C133.628 15.9292 133.3 14.9249 132.637 14.2068C131.982 13.4887 131.064 13.1297 129.883 13.1297C129.092 13.1297 128.392 13.2979 127.783 13.6342C127.183 13.9705 126.711 14.4613 126.365 15.1066C126.029 15.7429 125.856 16.511 125.847 17.4108Z" fill="#858585"/>
<path d="M12.6116 8.5759V12.9388H8.67132V23.0826C8.67132 23.619 8.75316 24.037 8.91676 24.337C9.08036 24.6278 9.30762 24.8323 9.59844 24.9505C9.89837 25.0687 10.2438 25.1277 10.6346 25.1277C10.9073 25.1277 11.18 25.105 11.4527 25.0596C11.7253 25.0051 11.9344 24.9641 12.0799 24.9369L12.9933 29.259C12.7025 29.3498 12.2935 29.4543 11.7663 29.5725C11.2391 29.6998 10.5983 29.777 9.84389 29.8043C8.44407 29.8588 7.21701 29.6725 6.16264 29.2453C5.11735 28.8181 4.30385 28.1546 3.72212 27.2547C3.1404 26.3549 2.85408 25.2187 2.86317 23.8461V12.9388H0V8.5759H2.86317V3.55853H8.67132V8.5759H12.6116Z" fill="#858585"/>
<path d="M44.8301 17.4108V29.518H39.022V8.57587H44.5574V12.2708H44.8029C45.2664 11.0527 46.0435 10.0892 47.1343 9.38027C48.2251 8.66221 49.5475 8.30322 51.1018 8.30322C52.5562 8.30322 53.8241 8.62133 54.9057 9.25755C55.9874 9.89384 56.8281 10.8028 57.4281 11.9844C58.028 13.1569 58.3279 14.5567 58.3279 16.1837V29.518H52.5198V17.2199C52.5289 15.9383 52.2017 14.9385 51.5381 14.2204C50.8746 13.4932 49.9611 13.1296 48.7976 13.1296C48.016 13.1296 47.3251 13.2978 46.7253 13.6341C46.1345 13.9704 45.6709 14.4613 45.3346 15.1066C45.0074 15.7429 44.8392 16.5109 44.8301 17.4108Z" fill="#858585"/>
<path fill-rule="evenodd" clip-rule="evenodd" d="M63.9936 28.5772C65.5387 29.477 67.3703 29.9269 69.4881 29.9269C71.6059 29.9269 73.4329 29.477 74.9691 28.5772C76.5142 27.6682 77.705 26.4048 78.5409 24.7869C79.3772 23.1599 79.7953 21.2738 79.7953 19.1287C79.7953 16.9655 79.3772 15.0748 78.5409 13.4569C77.705 11.8299 76.5142 10.5664 74.9691 9.66659C73.4329 8.75765 71.6059 8.30322 69.4881 8.30322C67.3703 8.30322 65.5387 8.75765 63.9936 9.66659C62.4574 10.5664 61.2713 11.8299 60.435 13.4569C59.5988 15.0748 59.1807 16.9655 59.1807 19.1287C59.1807 21.2738 59.5988 23.1599 60.435 24.7869C61.2713 26.4048 62.4574 27.6682 63.9936 28.5772ZM71.9286 24.6096C71.2833 25.155 70.4789 25.4277 69.5154 25.4277C68.5428 25.4277 67.7248 25.155 67.0613 24.6096C66.4068 24.0552 65.9114 23.3007 65.5751 22.3463C65.2479 21.392 65.0843 20.3058 65.0843 19.0878C65.0843 17.8698 65.2479 16.7837 65.5751 15.8293C65.9114 14.8749 66.4068 14.1204 67.0613 13.566C67.7248 13.0115 68.5428 12.7343 69.5154 12.7343C70.4789 12.7343 71.2833 13.0115 71.9286 13.566C72.574 14.1204 73.0602 14.8749 73.3875 15.8293C73.7237 16.7837 73.8919 17.8698 73.8919 19.0878C73.8919 20.3058 73.7237 21.392 73.3875 22.3463C73.0602 23.3007 72.574 24.0552 71.9286 24.6096Z" fill="#858585"/>
<path fill-rule="evenodd" clip-rule="evenodd" d="M90.1549 29.9269C88.037 29.9269 86.2059 29.477 84.6601 28.5772C83.1243 27.6682 81.9383 26.4048 81.1021 24.7869C80.2658 23.1599 79.8477 21.2738 79.8477 19.1287C79.8477 16.9655 80.2658 15.0748 81.1021 13.4569C81.9383 11.8299 83.1243 10.5664 84.6601 9.66659C86.2059 8.75765 88.037 8.30322 90.1549 8.30322C92.2728 8.30322 94.1 8.75765 95.6357 9.66659C97.1808 10.5664 98.3715 11.8299 99.2078 13.4569C100.044 15.0748 100.462 16.9655 100.462 19.1287C100.462 21.2738 100.044 23.1599 99.2078 24.7869C98.3715 26.4048 97.1808 27.6682 95.6357 28.5772C94.1 29.477 92.2728 29.9269 90.1549 29.9269ZM90.1821 25.4277C91.1458 25.4277 91.9502 25.155 92.5953 24.6096C93.2412 24.0552 93.7269 23.3007 94.0541 22.3463C94.3907 21.392 94.5585 20.3058 94.5585 19.0878C94.5585 17.8698 94.3907 16.7837 94.0541 15.8293C93.7269 14.8749 93.2412 14.1204 92.5953 13.566C91.9502 13.0115 91.1458 12.7343 90.1821 12.7343C89.2098 12.7343 88.3914 13.0115 87.7285 13.566C87.0733 14.1204 86.5782 14.8749 86.2417 15.8293C85.9145 16.7837 85.7513 17.8698 85.7513 19.0878C85.7513 20.3058 85.9145 21.392 86.2417 22.3463C86.5782 23.3007 87.0733 24.0552 87.7285 24.6096C88.3914 25.155 89.2098 25.4277 90.1821 25.4277Z" fill="#858585"/>
<path d="M113.466 14.8749L118.784 14.5477C118.53 12.6207 117.639 11.0982 116.112 9.98019C114.594 8.86219 112.513 8.30322 109.867 8.30322C108.076 8.30322 106.513 8.56677 105.177 9.09395C103.85 9.62112 102.819 10.371 102.082 11.3436C101.355 12.3162 100.991 13.4751 100.991 14.8203C100.991 16.3837 101.487 17.6698 102.477 18.6788C103.478 19.6877 105 20.3967 107.045 20.8057L110.671 21.5283C111.581 21.7101 112.253 21.9737 112.69 22.3191C113.126 22.6554 113.348 23.0872 113.357 23.6143C113.348 24.2415 113.03 24.755 112.403 25.155C111.785 25.5458 110.967 25.7413 109.949 25.7413C108.913 25.7413 108.063 25.5231 107.399 25.0868C106.736 24.6415 106.318 23.9961 106.145 23.1508L100.433 23.4507C100.714 25.4504 101.673 27.032 103.309 28.1954C104.954 29.3498 107.163 29.9269 109.935 29.9269C111.753 29.9269 113.357 29.6406 114.748 29.068C116.148 28.4863 117.248 27.6773 118.048 26.6412C118.857 25.6049 119.261 24.4006 119.261 23.0281C119.261 21.5192 118.761 20.3013 117.761 19.3742C116.762 18.447 115.244 17.7744 113.207 17.3562L109.417 16.5928C108.445 16.3837 107.759 16.1065 107.358 15.7611C106.959 15.4156 106.759 14.993 106.759 14.4931C106.759 13.8659 107.068 13.366 107.685 12.9933C108.304 12.6116 109.063 12.4207 109.963 12.4207C110.635 12.4207 111.212 12.5343 111.694 12.7616C112.185 12.9797 112.58 13.2751 112.88 13.6478C113.18 14.0114 113.376 14.4203 113.466 14.8749Z" fill="#858585"/>
<path d="M13.2394 9.77361C12.9175 9.36589 13.208 8.76666 13.7274 8.76666H25.2826C30.7912 8.76666 35.2567 13.235 35.2567 18.747V21.7609H29.2328V18.747C29.2328 16.564 27.4642 14.7944 25.2826 14.7944H17.202L13.2394 9.77361Z" fill="#858585"/>
<path d="M38.1702 22.8973V29.5179H28.3936C22.4487 29.5179 17.6294 24.6956 17.6294 18.747V16.4742H24.2459V18.747C24.2459 21.0391 26.1029 22.8973 28.3936 22.8973H38.1702Z" fill="#858585"/>
</g>
<defs>
<clipPath id="clip0_276_124">
<rect width="147.202" height="30" fill="white"/>
</clipPath>
</defs>
</svg>
