<svg width="223" height="50" viewBox="0 0 223 50" fill="none" xmlns="http://www.w3.org/2000/svg">
<path d="M25.7598 8.16514e-06C25.9181 -0.00117408 26.0474 0.126178 26.0486 0.284457L26.0822 4.78481C26.0834 4.94309 25.956 5.07236 25.7977 5.07354C25.6394 5.07472 25.5101 4.94737 25.509 4.78909L25.4753 0.288738C25.4742 0.130459 25.6015 0.00119042 25.7598 8.16514e-06Z" fill="#858585"/>
<path d="M20.0299 0.631967C20.1846 0.59842 20.3372 0.696624 20.3707 0.851312L21.2488 4.89968L22.9518 4.55241C23.1069 4.52078 23.2583 4.62086 23.2899 4.77596C23.3216 4.93105 23.2215 5.08241 23.0664 5.11404L20.8086 5.57445L19.8105 0.972795C19.7769 0.818108 19.8752 0.665514 20.0299 0.631967Z" fill="#858585"/>
<path d="M35.1683 2.01988C35.0247 1.95332 34.8543 2.01577 34.7877 2.15937C34.7212 2.30298 34.7836 2.47336 34.9272 2.53992L35.9192 2.99969L34.1748 6.81134C34.1089 6.95527 34.1722 7.12534 34.3162 7.19121C34.4601 7.25707 34.6302 7.19378 34.6961 7.04985L36.4394 3.24076L37.4288 3.69934C37.5724 3.76591 37.7428 3.70346 37.8094 3.55985C37.876 3.41625 37.8135 3.24587 37.6699 3.1793L35.1683 2.01988Z" fill="#858585"/>
<path d="M41.1295 5.06586C41.2529 5.16506 41.2725 5.34547 41.1732 5.4688L39.9058 7.04433L41.5492 8.37938L42.7887 6.90296L42.7888 6.90278L42.7889 6.90266L43.2281 7.27106L43.228 7.27119L41.6266 9.18084L41.6252 9.17973L40.257 10.802C40.1549 10.923 39.9741 10.9384 39.8531 10.8364C39.7321 10.7343 39.7167 10.5535 39.8187 10.4325L41.1802 8.81822L39.5465 7.49098L38.2808 9.0643C38.1816 9.18764 38.0012 9.2072 37.8778 9.10799C37.7545 9.00879 37.7349 8.82838 37.8341 8.70504L40.7265 5.10955C40.8258 4.98621 41.0062 4.96665 41.1295 5.06586Z" fill="#858585"/>
<path d="M48.2434 13.0153L43.7904 15.0063C43.6459 15.071 43.5812 15.2405 43.6458 15.385C43.7104 15.5295 43.8799 15.5942 44.0245 15.5296L46.9719 14.2118L44.9908 18.005L49.426 16.1312C49.5718 16.0696 49.6401 15.9015 49.5785 15.7557C49.5169 15.6099 49.3487 15.5416 49.2029 15.6032L46.2376 16.856L48.2434 13.0153Z" fill="#858585"/>
<path d="M50.6993 20.0955C50.8546 20.0647 50.9554 19.9138 50.9245 19.7586C50.8936 19.6033 50.7427 19.5025 50.5875 19.5334L46.0665 20.4322C45.9112 20.4631 45.8104 20.614 45.8412 20.7692C45.8721 20.9245 46.023 21.0253 46.1783 20.9944L48.0957 20.6132L48.4688 20.8581L46.4862 22.9798C46.3781 23.0955 46.3843 23.2768 46.4999 23.3849C46.6156 23.4929 46.797 23.4868 46.9051 23.3711L48.9551 21.1772L50.9161 22.4641C51.0484 22.5509 51.2261 22.5141 51.313 22.3817C51.3998 22.2494 51.363 22.0717 51.2306 21.9849L48.8975 20.4538L50.6993 20.0955Z" fill="#858585"/>
<path fill-rule="evenodd" clip-rule="evenodd" d="M14.5358 2.25285L15.0627 7.88223C15.0775 8.03982 15.2172 8.15563 15.3748 8.14088C15.5324 8.12613 15.6482 7.98642 15.6335 7.82882L15.52 6.61605L17.3434 5.69188L18.2001 6.50065C18.3152 6.60932 18.4966 6.60412 18.6053 6.48903C18.714 6.37394 18.7088 6.19255 18.5937 6.08389L14.5358 2.25285ZM16.9005 5.27372L15.4626 6.00253L15.2484 3.71389L16.9005 5.27372Z" fill="#858585"/>
<path d="M10.1379 5.52291C10.2607 5.42295 10.4412 5.44141 10.5412 5.56414C10.7393 5.8074 10.9792 6.06802 11.2356 6.34648C11.3033 6.42005 11.3722 6.49486 11.4417 6.57093C11.7694 6.92937 12.1083 7.3116 12.38 7.69457C12.6491 8.07378 12.8719 8.48001 12.9396 8.88761C13.0106 9.31516 12.9078 9.73274 12.5553 10.0893C12.5529 10.0917 12.5499 10.0948 12.5464 10.0984C12.4648 10.1823 12.0956 10.5621 11.5088 10.6299C10.8693 10.7038 10.0878 10.4011 9.23226 9.29444C8.97418 8.96062 8.52062 8.38884 8.00301 7.78073C7.90041 7.66019 7.91496 7.47931 8.03552 7.37673C8.15607 7.27414 8.33698 7.28869 8.43958 7.40923C8.96428 8.02568 9.42358 8.60468 9.68582 8.94388C10.4719 9.96069 11.0766 10.1029 11.443 10.0605C11.8233 10.0166 12.0696 9.76569 12.1407 9.69326C12.1432 9.6907 12.1455 9.68836 12.1476 9.68627C12.3619 9.46959 12.4171 9.2407 12.3741 8.98147C12.3277 8.7023 12.1645 8.38145 11.9125 8.02626C11.6631 7.67482 11.3456 7.31531 11.0186 6.95767C10.9529 6.8858 10.8866 6.81381 10.8205 6.74198L10.8204 6.74195C10.5626 6.46186 10.3069 6.18421 10.0967 5.92611C9.99673 5.80338 10.0152 5.62286 10.1379 5.52291Z" fill="#858585"/>
<path d="M6.01939 10.8126C5.499 10.8127 4.97956 11.176 4.67794 11.5967C4.37726 12.016 4.20155 12.638 4.63188 13.1257C4.80725 13.3244 5.00261 13.4568 5.21707 13.5242C5.43075 13.5913 5.64305 13.5874 5.84301 13.5455C6.22749 13.4651 6.60695 13.2328 6.92641 13.0372C7.27197 12.8256 7.55013 12.6557 7.79578 12.6001C7.90904 12.5745 7.99739 12.5783 8.07202 12.6048C8.14579 12.6311 8.23342 12.6891 8.32912 12.8192C8.52086 13.08 8.57626 13.4213 8.44745 13.7355C8.32004 14.0462 7.99139 14.3772 7.32401 14.5619C7.17144 14.6041 7.08199 14.762 7.12422 14.9145C7.16645 15.0671 7.32437 15.1565 7.47693 15.1143C8.26879 14.8951 8.76685 14.4676 8.97788 13.9529C9.18752 13.4416 9.09308 12.8905 8.79098 12.4797C8.64239 12.2776 8.46741 12.137 8.26406 12.0648C8.06158 11.9928 7.85831 11.9983 7.66926 12.041C7.32835 12.1182 6.97819 12.333 6.67483 12.5191L6.6748 12.5191L6.64886 12.535C6.64156 12.5395 6.63428 12.5439 6.62704 12.5484C6.28691 12.7566 5.99456 12.9282 5.72555 12.9845C5.59877 13.011 5.48891 13.0087 5.38883 12.9773C5.28952 12.9461 5.17952 12.8799 5.06174 12.7464C4.89428 12.5567 4.90749 12.2603 5.14386 11.9306C5.3793 11.6022 5.74506 11.3859 6.01943 11.3858C6.17774 11.3858 6.30606 11.2575 6.30605 11.0992C6.30604 10.9409 6.1777 10.8126 6.01939 10.8126Z" fill="#858585"/>
<path d="M30.7604 0.811171C31.2662 0.921346 31.8057 1.25421 32.0119 1.73192C32.0747 1.87724 32.0077 2.0459 31.8624 2.10864C31.7171 2.17138 31.5484 2.10443 31.4856 1.95911C31.3769 1.70724 31.0332 1.45723 30.6384 1.37123C30.242 1.28489 29.9646 1.39022 29.8567 1.61915C29.7808 1.78017 29.7636 1.90739 29.7743 2.01091C29.7851 2.11524 29.8266 2.217 29.9012 2.32287C30.0595 2.5475 30.3329 2.74789 30.6589 2.9776C30.6692 2.98487 30.6796 2.99218 30.6901 2.99952L30.7047 3.00984C30.9958 3.21457 31.3319 3.4509 31.5378 3.7333C31.652 3.8899 31.7376 4.07433 31.7517 4.28874C31.7659 4.50406 31.7062 4.72041 31.5795 4.93688C31.322 5.37701 30.8534 5.68209 30.3009 5.69227C29.7446 5.70252 29.1546 5.41474 28.6396 4.77466C28.5403 4.65134 28.5599 4.47093 28.6832 4.37171C28.8066 4.27249 28.987 4.29203 29.0862 4.41535C29.5203 4.95482 29.9545 5.12536 30.2903 5.11917C30.6298 5.11292 30.9213 4.92681 31.0847 4.64746C31.1663 4.50803 31.1849 4.40459 31.1797 4.32647C31.1745 4.24745 31.143 4.16482 31.0746 4.071C30.9262 3.86751 30.6599 3.67952 30.3287 3.44614C30.0225 3.23039 29.6588 2.97409 29.4326 2.65303C29.3149 2.48605 29.2272 2.2927 29.2041 2.06995C29.181 1.84639 29.2252 1.61456 29.3381 1.37483C29.6154 0.786531 30.2562 0.701337 30.7604 0.811171Z" fill="#858585"/>
<path d="M2.43121 15.6816C2.28549 15.6197 2.11722 15.6877 2.05536 15.8334C1.9935 15.9791 2.06147 16.1473 2.20719 16.2092L6.35038 17.9679C6.4961 18.0297 6.66437 17.9617 6.72624 17.816C6.7881 17.6704 6.72012 17.5021 6.5744 17.4402L2.43121 15.6816Z" fill="#858585"/>
<path d="M46.098 10.0726C46.2225 9.97479 46.2441 9.79462 46.1463 9.67016C46.0485 9.5457 45.8683 9.52408 45.7439 9.62188L42.2046 12.4025C42.0802 12.5003 42.0585 12.6804 42.1564 12.8049C42.2542 12.9294 42.4344 12.951 42.5588 12.8532L46.098 10.0726Z" fill="#858585"/>
<path d="M0.560371 19.4223C0.640242 19.2857 0.81579 19.2396 0.952468 19.3195L5.76782 22.1331L0.344406 23.2478C0.189343 23.2796 0.0378011 23.1798 0.00592712 23.0247C-0.0259468 22.8697 0.0739172 22.7182 0.22898 22.6863L4.18637 21.8729L0.663229 19.8144C0.526551 19.7345 0.4805 19.559 0.560371 19.4223Z" fill="#858585"/>
<path fill-rule="evenodd" clip-rule="evenodd" d="M12.7007 22.6305C12.8444 22.663 12.9829 22.7428 13.1174 22.8577C13.1364 22.7791 13.1626 22.7036 13.1969 22.6332C13.284 22.4536 13.431 22.2939 13.6508 22.2226C13.8661 22.1529 14.1053 22.183 14.3511 22.2857C14.4899 22.3437 14.6104 22.4517 14.7125 22.5663C14.8182 22.685 14.9235 22.8333 15.0274 22.9997C15.1081 23.1289 15.1903 23.2731 15.2736 23.4289C15.2794 23.4178 15.2854 23.4067 15.2917 23.3959C15.3845 23.2342 15.5401 23.0832 15.776 23.0495C15.9978 23.0178 16.2275 23.0998 16.4553 23.2477C16.6038 23.3441 16.7307 23.4973 16.8401 23.6646C16.9524 23.8363 17.0607 24.0457 17.1647 24.2785C17.2713 24.517 17.376 24.7864 17.4777 25.0754C17.5307 24.9481 17.5892 24.8288 17.6526 24.7274C17.7066 24.641 17.772 24.5548 17.851 24.4865C17.9298 24.4184 18.0403 24.3529 18.1787 24.3469C18.4724 24.3341 18.6571 24.5792 18.7705 24.8059C18.8986 25.0622 18.9932 25.423 19.0662 25.8169C19.1402 26.2168 19.1959 26.6741 19.2374 27.1372C19.3197 28.0555 19.3475 29.0126 19.348 29.6215C21.1155 29.8236 23.18 29.7688 25.083 29.6711C25.5885 29.6451 26.0867 29.6158 26.5636 29.5878L26.5646 29.5878L26.5657 29.5877L26.5666 29.5877L26.569 29.5875L26.5695 29.5875C27.1138 29.5555 27.6302 29.5252 28.098 29.5033C28.9784 29.462 29.7323 29.4476 30.2479 29.5088C31.3104 29.6349 32.3541 29.8919 33.208 30.3094C34.0596 30.7258 34.7533 31.3179 35.0558 32.1293C35.4543 33.1982 35.6321 34.1789 35.7224 34.6764L35.7224 34.6765C35.7269 34.7016 35.7313 34.7255 35.7354 34.7481C35.7371 34.7574 35.7388 34.7665 35.7404 34.7753C35.7425 34.7867 35.7445 34.7978 35.7465 34.8085L35.1829 34.9134C35.1794 34.8944 35.1757 34.8743 35.1718 34.8532C35.1676 34.8301 35.1632 34.8058 35.1585 34.7803L35.1585 34.7797C35.0681 34.2826 34.8984 33.3483 34.5186 32.3295C34.2869 31.708 33.7364 31.2058 32.9561 30.8243C32.1782 30.4439 31.2023 30.1993 30.1803 30.078C29.7187 30.0232 29.0105 30.0343 28.1249 30.0759C27.6537 30.098 27.1451 30.1279 26.6059 30.1595L26.605 30.1596L26.6044 30.1596C26.1294 30.1876 25.6305 30.2169 25.1124 30.2435C22.9232 30.356 20.4599 30.4162 18.4707 30.0763C18.3159 30.0567 17.7287 30.1447 17.1917 30.9859C17.324 31.1242 17.4682 31.2393 17.6403 31.3504C17.7061 31.3928 17.8311 31.445 18.0273 31.4996C18.2179 31.5527 18.4558 31.6028 18.7325 31.6494C19.2855 31.7426 19.9756 31.8193 20.7164 31.881C22.197 32.0044 23.8607 32.0667 24.9944 32.0862L24.9846 32.6593C23.8425 32.6397 22.1656 32.577 20.6687 32.4522C19.9208 32.3899 19.2128 32.3117 18.6371 32.2146C18.3495 32.1661 18.0903 32.1122 17.8735 32.0518C17.6622 31.993 17.4695 31.9224 17.3294 31.8319C17.055 31.6548 16.8274 31.4598 16.6157 31.1982C16.2959 30.8029 16.0227 30.2669 15.6683 29.4484C15.4515 28.9477 15.1991 28.328 14.884 27.5547C14.6829 27.0612 14.4563 26.5051 14.1972 25.8773C13.8056 24.9286 13.476 24.2869 13.2048 23.8645C13.0398 23.6076 12.9012 23.4392 12.7892 23.3332C12.6754 23.2255 12.6039 23.1963 12.5742 23.1896C12.5669 23.1879 12.5625 23.1877 12.5604 23.1877C12.5602 23.1879 12.5599 23.1881 12.5595 23.1883C12.5522 23.1935 12.5345 23.2112 12.5163 23.25C12.2752 24.0485 12.3995 25.0388 12.7591 26.3168C12.9885 27.1319 13.3032 28.0326 13.6577 29.0468L13.6577 29.047C13.8629 29.6339 14.0813 30.2589 14.3041 30.9273C14.6999 32.1145 15.577 32.9465 16.7787 33.5269C17.9858 34.1099 19.5043 34.4301 21.14 34.592C23.5001 34.8256 26.0418 34.7266 28.1729 34.6436C29.0048 34.6112 29.7742 34.5812 30.4457 34.5744L30.4515 35.1475C29.8085 35.1541 29.0587 35.1833 28.24 35.2151H28.2397C26.0983 35.2985 23.4859 35.4002 21.0835 35.1624C19.418 34.9976 17.8234 34.6681 16.5294 34.0431C15.2299 33.4155 14.2179 32.4812 13.7603 31.1086C13.5447 30.4621 13.3298 29.8469 13.1259 29.2632L13.1255 29.262L13.1254 29.2618L13.1254 29.2618C12.766 28.2331 12.4409 27.3025 12.2073 26.472C11.8408 25.1697 11.6736 24.0353 11.9733 23.065L11.9777 23.0509L11.9835 23.0373C12.0296 22.929 12.1058 22.8077 12.2271 22.7213C12.3576 22.6285 12.522 22.5901 12.7007 22.6305ZM14.7271 25.6587C14.3379 24.7156 14 24.0487 13.708 23.5875C13.6267 23.3169 13.6367 23.0397 13.7126 22.8835C13.7477 22.8111 13.7879 22.7807 13.8275 22.7679C13.8717 22.7536 13.9643 22.7453 14.1302 22.8146C14.1523 22.8239 14.2044 22.8577 14.2843 22.9474C14.3606 23.0331 14.4466 23.152 14.5411 23.3032C14.7299 23.6056 14.9364 24.0119 15.1518 24.4806C15.519 25.2796 15.8995 26.232 16.2508 27.1116L16.251 27.1121C16.353 27.3674 16.4525 27.6165 16.5485 27.8539C16.7605 28.378 16.9565 28.8478 17.1224 29.1932C17.2049 29.365 17.2841 29.5149 17.3578 29.6278C17.3944 29.6839 17.4348 29.739 17.479 29.7851C17.4884 29.7949 17.5 29.8064 17.5136 29.8186C17.2842 29.9748 17.0485 30.1971 16.8271 30.5033C16.6398 30.1998 16.4434 29.7958 16.1944 29.2206C15.9798 28.7249 15.7313 28.1151 15.4187 27.3479C15.2175 26.8539 14.9896 26.2947 14.7271 25.6587ZM18.7745 29.5449C18.7252 29.5373 18.6761 29.5295 18.6274 29.5214C18.4497 28.6057 18.1429 27.2383 17.781 26.0185C17.8622 25.6726 17.9937 25.263 18.1386 25.0314C18.1595 24.9979 18.1782 24.9723 18.1942 24.9533C18.2106 24.9763 18.232 25.0109 18.2578 25.0623C18.3485 25.2437 18.4317 25.5392 18.5025 25.9212C18.5721 26.2973 18.6258 26.7354 18.6664 27.1883C18.7435 28.0486 18.7718 28.9472 18.7745 29.5449ZM18.0057 29.4008L17.2081 26.1032C17.0266 25.4988 16.8342 24.9441 16.6413 24.5123C16.5444 24.2953 16.4501 24.1155 16.3603 23.9783C16.2675 23.8365 16.193 23.7609 16.1431 23.7285C15.9696 23.6158 15.8829 23.6132 15.8572 23.6169C15.8455 23.6186 15.8222 23.6232 15.7888 23.6813C15.7521 23.7452 15.7223 23.8455 15.706 23.9731C15.6925 24.0793 15.6901 24.1905 15.695 24.2899C16.062 25.0934 16.4418 26.0443 16.787 26.9084L16.7871 26.9087C16.8881 27.1615 16.9861 27.407 17.08 27.6391C17.2922 28.1637 17.4821 28.618 17.6392 28.9451C17.7182 29.1096 17.7847 29.2331 17.838 29.3147C17.8546 29.3402 17.868 29.3585 17.878 29.3711C17.9202 29.3812 17.9628 29.3911 18.0057 29.4008ZM17.8976 29.393C17.8976 29.3931 17.8965 29.3921 17.8942 29.3899C17.8965 29.3917 17.8976 29.3928 17.8976 29.393ZM18.2365 24.912C18.2366 24.912 18.2367 24.9119 18.2367 24.9119C18.2367 24.9119 18.2366 24.9119 18.2365 24.912C18.2364 24.9121 18.2362 24.9122 18.236 24.9123C18.2362 24.9122 18.2364 24.9121 18.2365 24.912ZM18.1579 24.9121C18.1564 24.9113 18.1557 24.9107 18.1557 24.9107C18.1557 24.9106 18.1564 24.911 18.1579 24.9121ZM12.559 23.1878C12.559 23.1878 12.5592 23.1878 12.5594 23.1878C12.5592 23.1878 12.559 23.1878 12.559 23.1878Z" fill="#858585"/>
<path fill-rule="evenodd" clip-rule="evenodd" d="M38.8028 28.9133C38.9373 29.0281 39.0759 29.108 39.2196 29.1404C39.3983 29.1809 39.5626 29.1425 39.6932 29.0496C39.8145 28.9633 39.8907 28.8419 39.9368 28.7337L39.9426 28.7201L39.9469 28.706C40.2466 27.7356 40.0794 26.6012 39.713 25.2989C39.4793 24.4684 39.1542 23.5378 38.7948 22.5091L38.7947 22.5086C38.5907 21.9247 38.3757 21.3092 38.16 20.6624C37.7024 19.2897 36.6904 18.3555 35.3909 17.7279C34.0969 17.1029 32.5023 16.7734 30.8368 16.6085C28.4343 16.3707 25.822 16.4724 23.6806 16.5558L23.6805 16.5558C22.8617 16.5877 22.1118 16.6169 21.4688 16.6234L21.4746 17.1966C22.1461 17.1898 22.9154 17.1598 23.7473 17.1274C25.8785 17.0443 28.4202 16.9453 30.7803 17.1789C32.416 17.3408 33.9345 17.661 35.1416 18.244C36.3433 18.8244 37.2204 19.6565 37.6162 20.8436C37.839 21.512 38.0574 22.137 38.2625 22.724L38.2626 22.7241C38.617 23.7383 38.9318 24.6391 39.1612 25.4542C39.5208 26.7322 39.645 27.7224 39.404 28.521C39.3857 28.5598 39.3681 28.5774 39.3608 28.5826L39.3603 28.5829L39.3599 28.5832C39.3578 28.5833 39.3534 28.583 39.3461 28.5814C39.3163 28.5746 39.2449 28.5454 39.1311 28.4378C39.0191 28.3318 38.8804 28.1634 38.7155 27.9065C38.4443 27.4841 38.1147 26.8424 37.7231 25.8936C37.4643 25.2666 37.2379 24.7111 37.037 24.218L37.0363 24.2162C36.7212 23.4429 36.4687 22.8233 36.252 22.3226C35.8976 21.5041 35.6244 20.9681 35.3045 20.5728C35.0929 20.3112 34.8653 20.1161 34.5909 19.939C34.4508 19.8486 34.2581 19.778 34.0468 19.7191C33.83 19.6588 33.5708 19.6048 33.2831 19.5563C32.7074 19.4593 31.9995 19.3811 31.2515 19.3187C29.7547 19.194 28.0777 19.1312 26.9357 19.1116L26.9259 19.6847C28.0596 19.7042 29.7232 19.7665 31.2039 19.8899C31.9447 19.9517 32.6348 20.0283 33.1878 20.1216C33.4645 20.1682 33.7024 20.2183 33.893 20.2713C34.0891 20.3259 34.2142 20.3782 34.28 20.4206C34.4521 20.5317 34.5962 20.6468 34.7286 20.785C34.1916 21.6263 33.6044 21.7143 33.4496 21.6947C31.4604 21.3548 28.9971 21.415 26.8079 21.5275C26.2892 21.5541 25.7899 21.5835 25.3144 21.6114C24.7752 21.6431 24.2666 21.673 23.7954 21.6951C22.9098 21.7366 22.2016 21.7478 21.74 21.693C20.7179 21.5716 19.7421 21.327 18.9641 20.9466C18.1839 20.5651 17.6334 20.063 17.4016 19.4414C17.0219 18.4226 16.8521 17.4883 16.7618 16.9912L16.7539 16.9474C16.752 16.9371 16.7502 16.9271 16.7484 16.9172C16.7445 16.8963 16.7409 16.8764 16.7373 16.8575L16.1738 16.9625C16.1811 17.0016 16.1891 17.0457 16.1979 17.0945L16.1979 17.0945C16.2881 17.5921 16.466 18.5727 16.8645 19.6416C17.1669 20.453 17.8606 21.0451 18.7123 21.4616C19.5662 21.8791 20.6098 22.136 21.6724 22.2622C22.1879 22.3234 22.9419 22.3089 23.8223 22.2676C24.2908 22.2457 24.808 22.2153 25.3532 22.1833L25.3546 22.1832C25.8321 22.1552 26.331 22.1259 26.8373 22.0999C28.7403 22.0021 30.8048 21.9473 32.5723 22.1495C32.5728 22.7583 32.6006 23.7155 32.6829 24.6338C32.7244 25.0968 32.7801 25.5542 32.8541 25.954C32.927 26.3479 33.0216 26.7088 33.1498 26.965C33.2632 27.1917 33.4478 27.4369 33.7416 27.424C33.88 27.418 33.9905 27.3526 34.0693 27.2844C34.1483 27.2161 34.2137 27.1299 34.2677 27.0435C34.3311 26.9422 34.3896 26.8229 34.4425 26.6955C34.5443 26.9846 34.649 27.254 34.7555 27.4924C34.8595 27.7252 34.9679 27.9347 35.0802 28.1064C35.1896 28.2736 35.3165 28.4268 35.465 28.5232C35.6928 28.6711 35.9224 28.7532 36.1443 28.7215C36.3802 28.6877 36.5357 28.5368 36.6286 28.3751C36.6348 28.3642 36.6409 28.3532 36.6467 28.3421C36.7299 28.4979 36.8122 28.642 36.8929 28.7713C36.9968 28.9377 37.1021 29.0859 37.2078 29.2046C37.3098 29.3193 37.4304 29.4273 37.5692 29.4852C37.815 29.5879 38.0542 29.6181 38.2695 29.5483C38.4893 29.4771 38.6362 29.3174 38.7234 29.1378C38.7576 29.0673 38.7838 28.9919 38.8028 28.9133ZM38.2123 28.1835C37.9202 27.7223 37.5824 27.0553 37.1932 26.1123C36.9307 25.4763 36.7028 24.9171 36.5016 24.4231C36.189 23.6559 35.9405 23.046 35.7259 22.5503C35.4769 21.9751 35.2805 21.5712 35.0932 21.2677C34.8717 21.5739 34.6361 21.7961 34.4067 21.9524C34.4203 21.9645 34.4319 21.976 34.4413 21.9859C34.4855 22.0319 34.5259 22.0871 34.5625 22.1431C34.6362 22.2561 34.7154 22.406 34.7979 22.5777C34.9638 22.9231 35.1598 23.3929 35.3717 23.917C35.4676 24.1541 35.567 24.4029 35.6688 24.6578L35.6694 24.6593C36.0208 25.5389 36.4013 26.4914 36.7684 27.2904C36.9838 27.7591 37.1904 28.1653 37.3792 28.4677C37.4736 28.619 37.5597 28.7378 37.636 28.8235C37.7159 28.9133 37.768 28.9471 37.7901 28.9563C37.956 29.0256 38.0486 29.0174 38.0927 29.0031C38.1324 28.9902 38.1726 28.9599 38.2077 28.8875C38.2836 28.7312 38.2936 28.454 38.2123 28.1835ZM33.2929 22.2495C33.2442 22.2415 33.1951 22.2336 33.1458 22.226C33.1484 22.8238 33.1768 23.7224 33.2539 24.5826C33.2945 25.0356 33.3482 25.4737 33.4178 25.8497C33.4885 26.2318 33.5718 26.5272 33.6625 26.7086C33.6882 26.76 33.7096 26.7946 33.7261 26.8176C33.742 26.7986 33.7607 26.773 33.7817 26.7396C33.9265 26.508 34.0581 26.0984 34.1393 25.7525C33.7774 24.5326 33.4706 23.1652 33.2929 22.2495ZM34.7122 25.6677L33.9145 22.3701C33.9575 22.3798 34.0001 22.3897 34.0423 22.3998C34.0523 22.4124 34.0657 22.4308 34.0823 22.4563C34.1356 22.5379 34.2021 22.6614 34.2811 22.8259C34.4382 23.153 34.6281 23.6073 34.8403 24.1319C34.9338 24.3631 35.0314 24.6076 35.132 24.8595L35.1333 24.8626C35.4784 25.7267 35.8582 26.6775 36.2253 27.4811C36.2302 27.5805 36.2278 27.6916 36.2143 27.7978C36.198 27.9255 36.1682 28.0257 36.1315 28.0896C36.0981 28.1478 36.0748 28.1524 36.0631 28.154C36.0373 28.1577 35.9506 28.1551 35.7772 28.0425C35.7273 28.0101 35.6527 27.9345 35.56 27.7927C35.4702 27.6554 35.3759 27.4756 35.279 27.2587C35.0861 26.8268 34.8937 26.2722 34.7122 25.6677ZM34.0227 22.378C34.0227 22.3779 34.023 22.3782 34.0236 22.3787C34.0241 22.3792 34.025 22.38 34.0261 22.3811C34.0238 22.3792 34.0226 22.3781 34.0227 22.378ZM33.7623 26.8589C33.7639 26.8597 33.7646 26.8602 33.7646 26.8603C33.7646 26.8604 33.7638 26.86 33.7623 26.8589ZM33.6837 26.859C33.6838 26.8589 33.684 26.8588 33.6843 26.8586C33.6838 26.8589 33.6836 26.859 33.6836 26.859L33.6837 26.859Z" fill="#858585"/>
<path d="M25.0937 24.5954L27.1523 25.7725L25.0937 26.9143V24.5954Z" fill="#858585"/>
<path fill-rule="evenodd" clip-rule="evenodd" d="M28.6115 25.7548C28.6115 27.2585 27.369 28.4775 25.8364 28.4775C24.3037 28.4775 23.0612 27.2585 23.0612 25.7548C23.0612 24.2511 24.3037 23.0322 25.8364 23.0322C27.369 23.0322 28.6115 24.2511 28.6115 25.7548ZM28.2207 25.7548C28.2207 27.0357 27.1602 28.0867 25.8364 28.0867C24.5125 28.0867 23.4521 27.0357 23.4521 25.7548C23.4521 24.4739 24.5125 23.423 25.8364 23.423C27.1602 23.423 28.2207 24.4739 28.2207 25.7548Z" fill="#858585"/>
<path d="M30.7092 22.5111C30.6907 22.5111 30.6805 22.5401 30.66 22.598L30.418 23.2827C30.4141 23.2938 30.4121 23.2993 30.4082 23.3034C30.4042 23.3075 30.3987 23.3096 30.3877 23.3139L29.7271 23.5698C29.6742 23.5903 29.6478 23.6005 29.6478 23.6184C29.6478 23.6362 29.6742 23.6465 29.7271 23.667L30.3877 23.9229C30.3987 23.9271 30.4042 23.9293 30.4082 23.9334C30.4121 23.9374 30.4141 23.943 30.418 23.9541L30.66 24.6388C30.6805 24.6967 30.6907 24.7257 30.7092 24.7257C30.7276 24.7257 30.7378 24.6967 30.7583 24.6388L31.0003 23.9541C31.0042 23.943 31.0062 23.9374 31.0102 23.9334C31.0141 23.9293 31.0196 23.9271 31.0306 23.9229L31.6912 23.667C31.7441 23.6465 31.7706 23.6362 31.7706 23.6184C31.7706 23.6005 31.7441 23.5903 31.6912 23.5698L31.0306 23.3139C31.0196 23.3096 31.0141 23.3075 31.0102 23.3034C31.0075 23.3007 31.0058 23.2973 31.0037 23.2921C31.0027 23.2895 31.0016 23.2864 31.0003 23.2827L30.7583 22.598C30.7378 22.5401 30.7276 22.5111 30.7092 22.5111Z" fill="#858585"/>
<path fill-rule="evenodd" clip-rule="evenodd" d="M45.8357 26.1847C45.8357 37.1351 36.8759 46.0121 25.8233 46.0121C14.7708 46.0121 5.81095 37.1351 5.81095 26.1847C5.81095 15.2344 14.7708 6.3574 25.8233 6.3574C36.8759 6.3574 45.8357 15.2344 45.8357 26.1847ZM44.4286 26.1847C44.4286 36.3459 36.1109 44.6051 25.8233 44.6051C15.5358 44.6051 7.21807 36.3459 7.21807 26.1847C7.21807 16.0235 15.5358 7.76434 25.8233 7.76434C36.1109 7.76434 44.4286 16.0235 44.4286 26.1847Z" fill="#858585"/>
<path d="M46.7127 35.9677C47.0655 36.0922 47.2506 36.4791 47.126 36.8319C46.2071 39.4352 43.95 42.1854 40.9277 44.481C37.894 46.7852 34.0315 48.6767 29.8232 49.5226C25.6105 50.3694 21.039 50.1701 16.6155 48.2719C12.1892 46.3726 7.95915 42.793 4.39877 36.9593C4.20386 36.64 4.30478 36.2231 4.62419 36.0282C4.94359 35.8333 5.36052 35.9342 5.55542 36.2536C8.99156 41.8838 13.0186 45.2542 17.1498 47.0269C21.2838 48.8008 25.5704 48.9955 29.5561 48.1944C33.5463 47.3923 37.2226 45.5939 40.1081 43.4021C43.005 41.2017 45.0474 38.6498 45.8483 36.381C45.9728 36.0282 46.3598 35.8431 46.7127 35.9677Z" fill="#858585"/>
<path d="M2.33223 26.6798C2.3138 26.6798 2.30357 26.7088 2.28309 26.7667L2.0411 27.4513C2.03717 27.4625 2.03521 27.468 2.03124 27.4721C2.02727 27.4762 2.02177 27.4783 2.01079 27.4826L1.3502 27.7385C1.29729 27.759 1.27084 27.7692 1.27084 27.7871C1.27084 27.8049 1.29729 27.8152 1.3502 27.8357L2.01079 28.0916C2.02177 28.0958 2.02727 28.0979 2.03124 28.102C2.03521 28.1061 2.03717 28.1117 2.0411 28.1228L2.28309 28.8075C2.30357 28.8654 2.3138 28.8944 2.33223 28.8944C2.35066 28.8944 2.36089 28.8654 2.38137 28.8075L2.62336 28.1228C2.62729 28.1117 2.62925 28.1061 2.63322 28.102C2.63719 28.0979 2.64269 28.0958 2.65367 28.0916L3.31426 27.8357C3.36717 27.8152 3.39362 27.8049 3.39362 27.7871C3.39362 27.7692 3.36717 27.759 3.31426 27.7385L2.65367 27.4826C2.64269 27.4783 2.63719 27.4762 2.63322 27.4721C2.62925 27.468 2.62729 27.4625 2.62336 27.4513L2.38137 26.7667C2.36089 26.7088 2.35066 26.6798 2.33223 26.6798Z" fill="#858585"/>
<path d="M49.2653 26.7667C49.2858 26.7088 49.296 26.6798 49.3144 26.6798C49.3329 26.6798 49.3431 26.7088 49.3636 26.7667L49.6056 27.4513L49.6056 27.4514C49.6083 27.4589 49.61 27.4639 49.6121 27.4676C49.6131 27.4693 49.6142 27.4708 49.6154 27.4721C49.6194 27.4762 49.6249 27.4783 49.6359 27.4826L50.2965 27.7385C50.3494 27.759 50.3758 27.7692 50.3758 27.7871C50.3758 27.8049 50.3494 27.8152 50.2965 27.8357L49.6359 28.0916C49.6249 28.0958 49.6194 28.0979 49.6154 28.102C49.6115 28.1061 49.6095 28.1116 49.6056 28.1227L49.6056 28.1228L49.6056 28.1228L49.3636 28.8075C49.3431 28.8654 49.3329 28.8944 49.3144 28.8944C49.296 28.8944 49.2858 28.8654 49.2653 28.8075L49.0233 28.1228L49.0233 28.1228L49.0233 28.1227C49.0194 28.1116 49.0174 28.1061 49.0134 28.102C49.0126 28.1012 49.0118 28.1005 49.0108 28.0998C49.0095 28.0988 49.0081 28.098 49.0063 28.0971C49.003 28.0954 48.9988 28.0938 48.993 28.0916L48.3324 27.8357C48.2795 27.8152 48.2531 27.8049 48.2531 27.7871C48.2531 27.7692 48.2795 27.759 48.3324 27.7385L48.993 27.4826C48.9966 27.4812 48.9997 27.48 49.0022 27.4789C49.0038 27.4782 49.0052 27.4776 49.0064 27.477C49.0081 27.4762 49.0095 27.4753 49.0108 27.4744C49.0118 27.4737 49.0126 27.4729 49.0134 27.4721C49.0159 27.4696 49.0175 27.4666 49.0194 27.4621C49.0205 27.4592 49.0218 27.4557 49.0233 27.4514L49.0233 27.4513L49.2653 26.7667Z" fill="#858585"/>
<path d="M76.967 16.224L70.607 33H68.687L62.327 16.224H64.151L69.647 31.176L75.191 16.224H76.967ZM81.1713 16.224V33H79.4913V16.224H81.1713ZM90.0637 33.168C88.9597 33.168 87.9837 32.976 87.1357 32.592C86.3037 32.208 85.6477 31.672 85.1677 30.984C84.6877 30.296 84.4317 29.528 84.3997 28.68H86.1757C86.2557 29.496 86.6157 30.216 87.2557 30.84C87.8957 31.448 88.8317 31.752 90.0637 31.752C91.1997 31.752 92.0957 31.464 92.7517 30.888C93.4237 30.296 93.7597 29.552 93.7597 28.656C93.7597 27.936 93.5757 27.36 93.2077 26.928C92.8397 26.48 92.3837 26.152 91.8397 25.944C91.2957 25.72 90.5437 25.48 89.5837 25.224C88.4637 24.92 87.5757 24.624 86.9197 24.336C86.2637 24.048 85.7037 23.6 85.2397 22.992C84.7757 22.384 84.5437 21.56 84.5437 20.52C84.5437 19.656 84.7677 18.888 85.2157 18.216C85.6637 17.528 86.2957 16.992 87.1117 16.608C87.9277 16.224 88.8637 16.032 89.9197 16.032C91.4717 16.032 92.7197 16.416 93.6637 17.184C94.6237 17.936 95.1757 18.912 95.3197 20.112H93.4957C93.3837 19.424 93.0077 18.816 92.3677 18.288C91.7277 17.744 90.8637 17.472 89.7757 17.472C88.7677 17.472 87.9277 17.744 87.2557 18.288C86.5837 18.816 86.2477 19.544 86.2477 20.472C86.2477 21.176 86.4317 21.744 86.7997 22.176C87.1677 22.608 87.6237 22.936 88.1677 23.16C88.7277 23.384 89.4797 23.624 90.4237 23.88C91.5117 24.184 92.3917 24.488 93.0637 24.792C93.7357 25.08 94.3037 25.528 94.7677 26.136C95.2317 26.744 95.4637 27.56 95.4637 28.584C95.4637 29.368 95.2557 30.112 94.8397 30.816C94.4237 31.52 93.8077 32.088 92.9917 32.52C92.1757 32.952 91.1997 33.168 90.0637 33.168ZM100.318 16.224V26.784C100.318 28.448 100.71 29.68 101.494 30.48C102.294 31.28 103.382 31.68 104.758 31.68C106.134 31.68 107.206 31.288 107.974 30.504C108.758 29.704 109.15 28.464 109.15 26.784V16.224H110.83V26.76C110.83 28.888 110.262 30.488 109.126 31.56C108.006 32.632 106.542 33.168 104.734 33.168C102.926 33.168 101.454 32.632 100.318 31.56C99.198 30.488 98.638 28.888 98.638 26.76V16.224H100.318ZM124.297 29.016H116.665L115.201 33H113.425L119.545 16.44H121.441L127.537 33H125.761L124.297 29.016ZM123.793 27.624L120.481 18.552L117.169 27.624H123.793ZM131.913 31.632H137.937V33H130.233V16.224H131.913V31.632ZM142.015 16.224V33H140.335V16.224H142.015ZM150.907 33.168C149.803 33.168 148.827 32.976 147.979 32.592C147.147 32.208 146.491 31.672 146.011 30.984C145.531 30.296 145.275 29.528 145.243 28.68H147.019C147.099 29.496 147.459 30.216 148.099 30.84C148.739 31.448 149.675 31.752 150.907 31.752C152.043 31.752 152.939 31.464 153.595 30.888C154.267 30.296 154.603 29.552 154.603 28.656C154.603 27.936 154.419 27.36 154.051 26.928C153.683 26.48 153.227 26.152 152.683 25.944C152.139 25.72 151.387 25.48 150.427 25.224C149.307 24.92 148.419 24.624 147.763 24.336C147.107 24.048 146.547 23.6 146.083 22.992C145.619 22.384 145.387 21.56 145.387 20.52C145.387 19.656 145.611 18.888 146.059 18.216C146.507 17.528 147.139 16.992 147.955 16.608C148.771 16.224 149.707 16.032 150.763 16.032C152.315 16.032 153.563 16.416 154.507 17.184C155.467 17.936 156.019 18.912 156.163 20.112H154.339C154.227 19.424 153.851 18.816 153.211 18.288C152.571 17.744 151.707 17.472 150.619 17.472C149.611 17.472 148.771 17.744 148.099 18.288C147.427 18.816 147.091 19.544 147.091 20.472C147.091 21.176 147.275 21.744 147.643 22.176C148.011 22.608 148.467 22.936 149.011 23.16C149.571 23.384 150.323 23.624 151.267 23.88C152.355 24.184 153.235 24.488 153.907 24.792C154.579 25.08 155.147 25.528 155.611 26.136C156.075 26.744 156.307 27.56 156.307 28.584C156.307 29.368 156.099 30.112 155.683 30.816C155.267 31.52 154.651 32.088 153.835 32.52C153.019 32.952 152.043 33.168 150.907 33.168ZM169.37 16.224V17.616H164.714V33H163.034V17.616H158.354V16.224H169.37ZM184.479 16.224V33H182.799V25.152H173.703V33H172.023V16.224H173.703V23.76H182.799V16.224H184.479ZM189.992 16.224V33H188.312V16.224H189.992ZM206.444 33H204.764L195.476 18.888V33H193.796V16.224H195.476L204.764 30.312V16.224H206.444V33ZM219.201 33L211.929 25.248V33H210.249V16.224H211.929V24.072L219.201 16.224H221.337L213.489 24.6L221.409 33H219.201Z" fill="#858585"/>
</svg>
