<svg width="32" height="32" viewBox="0 0 32 32" fill="none" xmlns="http://www.w3.org/2000/svg">
<path d="M23.736 11.4133C23.736 11.4133 21.1413 19.5506 20.9293 20.2226C20.2759 15.1227 19.6164 10.0236 18.9507 4.92529C14.5293 4.92529 12.1653 8.07196 10.916 11.3933L7.496 20.2426C7.476 19.608 7.016 11.4893 7.016 11.4893C6.744 7.41996 3.016 4.94263 0 4.94263L3.652 27.076C8.284 27.056 10.7813 23.928 12.0893 20.6066C12.0893 20.6066 14.876 13.4093 14.9907 13.0826C15.0107 13.3893 16.9907 27.0746 16.9907 27.0746C21.6413 27.0746 24.14 24.1386 25.484 20.9333L32 4.94396C27.4067 4.94396 24.9853 8.07196 23.736 11.412V11.4133Z" fill="white"/>
</svg>
