<svg width="31" height="31" viewBox="0 0 31 31" fill="none" xmlns="http://www.w3.org/2000/svg">
<path d="M3.73574 10.2566L9.88125 27.0887C5.58242 25.0059 2.62168 20.598 2.62168 15.5C2.62168 13.6291 3.02129 11.8611 3.73574 10.2566ZM24.1945 14.8521C24.1945 13.2598 23.6254 12.1578 23.135 11.298C22.4811 10.2385 21.8695 9.33633 21.8695 8.27676C21.8695 7.09004 22.7656 5.98809 24.0311 5.98809C24.0855 5.98809 24.14 5.99414 24.2006 6.0002C21.9059 3.89922 18.8543 2.61563 15.5 2.61563C11.0014 2.61563 7.0416 4.92246 4.73477 8.42207C5.0375 8.43418 5.32207 8.44023 5.56426 8.44023C6.9084 8.44023 8.99727 8.27676 8.99727 8.27676C9.69355 8.23438 9.77227 9.25762 9.08203 9.33633C9.08203 9.33633 8.38574 9.41504 7.61074 9.45742L12.3031 23.4074L15.1246 14.9551L13.1205 9.45742C12.4242 9.41504 11.7703 9.33633 11.7703 9.33633C11.074 9.29395 11.1588 8.23438 11.849 8.27676C11.849 8.27676 13.9742 8.44023 15.2396 8.44023C16.5838 8.44023 18.6727 8.27676 18.6727 8.27676C19.3689 8.23438 19.4477 9.25762 18.7574 9.33633C18.7574 9.33633 18.0611 9.41504 17.2861 9.45742L21.9422 23.3045L23.2258 19.0117C23.7707 17.2316 24.1945 15.9541 24.1945 14.8521ZM15.724 16.6262L11.8611 27.8576C13.0176 28.1967 14.2346 28.3844 15.5 28.3844C17.0016 28.3844 18.4365 28.124 19.7746 27.6518C19.7383 27.5973 19.708 27.5367 19.6838 27.4762L15.724 16.6262ZM26.8041 9.31816C26.8586 9.72988 26.8889 10.1658 26.8889 10.6441C26.8889 11.952 26.6467 13.4172 25.908 15.2578L21.9725 26.6346C25.8051 24.4004 28.3783 20.2529 28.3783 15.5C28.3783 13.2598 27.8092 11.1527 26.8041 9.31816ZM30.5156 15.5C30.5156 23.7828 23.7768 30.5156 15.5 30.5156C7.21719 30.5156 0.484375 23.7768 0.484375 15.5C0.484375 7.21719 7.21719 0.484375 15.5 0.484375C23.7768 0.484375 30.5156 7.21719 30.5156 15.5ZM29.8254 15.5C29.8254 7.59863 23.3953 1.17461 15.5 1.17461C7.59863 1.17461 1.17461 7.59863 1.17461 15.5C1.17461 23.4014 7.60469 29.8254 15.5 29.8254C23.4014 29.8254 29.8254 23.4014 29.8254 15.5Z" fill="black"/>
</svg>
